<svg width="1920" height="537" viewBox="0 0 1920 537" fill="none" xmlns="http://www.w3.org/2000/svg">
<path d="M-525.838 537H-544L-136.601 -72H-118.438L-525.838 537ZM-70.8894 -72H-89.0517L-496.451 537H-478.289L-70.8894 -72ZM-23.3403 -72H-41.5027L-448.907 537H-430.744L-23.3449 -72H-23.3403ZM24.2086 -72H6.04633L-401.358 537H-383.195L24.2041 -72H24.2086ZM71.7576 -72H53.5953L-353.813 537H-335.651L71.7485 -72H71.7576ZM119.307 -72H101.144L-306.255 537H-288.093L119.297 -72H119.307ZM166.856 -72H148.693L-258.706 537H-240.544L166.842 -72H166.856ZM214.405 -72H196.242L-211.157 537H-192.995L214.391 -72H214.405ZM261.954 -72H243.791L-163.608 537H-145.446L261.935 -72H261.954ZM309.503 -72H291.34L-116.059 537H-97.8968L309.484 -72H309.503ZM357.052 -72H338.889L-68.5101 537H-50.3478L357.029 -72H357.052ZM404.601 -72H386.438L-20.9611 537H-2.79877L404.578 -72H404.601ZM452.149 -72H433.987L26.5879 537H44.7502L452.122 -72H452.149ZM499.699 -72H481.536L74.1368 537H92.2992L499.671 -72H499.699ZM547.248 -72H529.085L121.686 537H139.848L547.22 -72H547.248ZM594.797 -72H576.634L169.235 537H187.397L594.765 -72H594.797ZM642.345 -72H624.183L216.784 537H234.946L642.314 -72H642.345ZM689.895 -72H671.732L264.333 537H282.495L689.858 -72H689.895ZM737.443 -72H719.281L311.882 537H330.044L737.407 -72H737.443ZM784.992 -72H766.83L359.431 537H377.593L784.952 -72H784.992ZM832.541 -72H814.379L406.98 537H425.142L832.501 -72H832.541ZM880.09 -72H861.928L454.529 537H472.691L880.045 -72H880.09ZM927.64 -72H909.477L502.078 537H520.24L927.594 -72H927.64ZM975.188 -72H957.026L549.627 537H567.789L975.138 -72H975.188ZM1022.74 -72H1004.58L597.176 537H615.338L1022.69 -72H1022.74ZM1070.29 -72H1052.12L644.725 537H662.887L1070.23 -72H1070.29ZM1117.84 -72H1099.67L692.274 537H710.436L1117.78 -72H1117.84ZM1165.38 -72H1147.22L739.823 537H757.985L1165.33 -72H1165.38ZM1212.93 -72H1194.77L787.372 537H805.534L1212.87 -72H1212.93ZM1260.48 -72H1242.32L834.921 537H853.083L1260.42 -72H1260.48ZM1308.03 -72H1289.87L882.47 537H900.632L1307.97 -72H1308.03ZM1355.58 -72H1337.42L930.019 537H948.181L1355.52 -72H1355.58ZM1403.13 -72H1384.97L977.568 537H995.73L1403.06 -72H1403.13ZM1450.68 -72H1432.52L1025.12 537H1043.28L1450.61 -72H1450.68ZM1498.23 -72H1480.07L1072.67 537H1090.83L1498.15 -72H1498.23ZM1545.78 -72H1527.61L1120.21 537H1138.38L1545.7 -72H1545.78ZM1593.33 -72H1575.16L1167.76 537H1185.93L1593.25 -72H1593.33ZM1640.87 -72H1622.71L1215.31 537H1233.47L1640.8 -72H1640.87ZM1688.42 -72H1670.26L1262.86 537H1281.02L1688.34 -72H1688.42ZM1735.97 -72H1717.81L1310.41 537H1328.57L1735.89 -72H1735.97ZM1783.52 -72H1765.36L1357.96 537H1376.12L1783.44 -72H1783.52ZM1831.07 -72H1812.91L1405.51 537H1423.67L1830.98 -72H1831.07ZM1878.62 -72H1860.46L1453.06 537H1471.22L1878.53 -72H1878.62ZM1926.17 -72H1908.01L1500.61 537H1518.77L1926.08 -72H1926.17ZM1973.72 -72H1955.55L1548.16 537H1566.32L1973.63 -72H1973.72ZM2021.27 -72H2003.1L1595.7 537H1613.87L2021.17 -72H2021.27ZM2068.82 -72H2050.65L1643.25 537H1661.42L2068.72 -72H2068.82ZM2116.36 -72H2098.2L1690.8 537H1708.96L2116.26 -72H2116.36ZM2163.91 -72H2145.75L1738.35 537H1756.51L2163.81 -72H2163.91ZM2211.46 -72H2193.3L1785.9 537H1804.06L2211.36 -72H2211.46ZM2259.01 -72H2240.85L1833.45 537H1851.61L2258.91 -72H2259.01ZM2306.56 -72H2288.4L1881 537H1899.16L2306.45 -72H2306.56ZM2354.11 -72H2335.95L1928.55 537H1946.71L2354 -72H2354.11Z" fill="url(#paint0_linear_193_337)"/>
<defs>
<linearGradient id="paint0_linear_193_337" x1="905.055" y1="-3.35871e-06" x2="905.055" y2="492" gradientUnits="userSpaceOnUse">
<stop stop-color="#A9A2F0"/>
<stop offset="1" stop-color="#B2ABF2" stop-opacity="0"/>
</linearGradient>
</defs>
</svg>
