<svg width="160" height="70" viewBox="0 0 160 70" fill="none" xmlns="http://www.w3.org/2000/svg">
<rect width="160" height="70" fill="#F5F5F5"/>
<g id="1.0 Desktop Home" clip-path="url(#clip0_59_66)">
<rect width="1920" height="7277" transform="translate(-169 -25)" fill="white"/>
<g id="Header">
<rect width="1920" height="120" transform="translate(-169 -25)" fill="#162B6A"/>
<g id="Capa_1" clip-path="url(#clip1_59_66)">
<path id="Vector" d="M18.9456 21.8218H16.3267V19.5367H18.9456V21.8218ZM23.6088 23.8633H20.9899V26.1484H23.6088V23.8633ZM18.9456 23.8633H16.3267V26.1484H18.9456V23.8633ZM51.588 23.0642H28.7674V3.74643H51.588V23.0642ZM42.9978 14.4712C43.6573 14.6738 44.2867 14.9419 44.8778 15.2676L49.1661 4.7754H46.9604L42.9978 14.4712ZM39.0543 14.0854C39.3909 14.0498 39.7303 14.0334 40.0751 14.0334C40.4199 14.0334 40.7592 14.0498 41.0958 14.0854V4.7754H39.0543V14.0854ZM30.8964 4.7754L35.2011 15.3087C35.7923 14.9775 36.4189 14.7039 37.0757 14.4959L33.1022 4.7754H30.8964ZM29.8127 15.076L32.1963 17.8948C32.6178 17.3529 33.0939 16.8576 33.6166 16.4115L29.8127 11.9125V15.076ZM31.0907 19.6599L29.8127 19.0359V21.3101L30.3847 21.5892C30.5544 20.916 30.7924 20.2701 31.0907 19.6599ZM48.8432 21.9997C47.921 18.0124 44.3415 15.0295 40.0751 15.0295C35.8087 15.0295 32.2319 18.0124 31.3069 21.9997H33.4251C34.2953 19.1509 36.9444 17.071 40.0751 17.071C43.2058 17.071 45.8521 19.1509 46.7251 21.9997H48.8432ZM50.5372 18.8991L49.0457 19.627C49.3467 20.2373 49.5876 20.8804 49.76 21.5509L50.5372 21.1705V18.8964V18.8991ZM50.5372 11.5786L46.487 16.3705C47.0124 16.8111 47.4913 17.3064 47.9155 17.8428L50.5372 14.7422V11.5786ZM23.6088 19.5367H20.9899V21.8218H23.6088V19.5367ZM51.547 43.6245H28.7701V25.1112H51.5908V42.226C51.5908 42.6967 51.5743 43.162 51.547 43.6245ZM50.5399 38.206C49.7736 37.6586 48.8706 37.2071 47.6637 37.2071C45.9451 37.2071 44.8423 38.1184 43.8708 38.9229C42.8555 39.7631 41.9798 40.4856 40.3597 40.4856C38.7396 40.4856 37.8639 39.7603 36.8486 38.9229C35.8771 38.1184 34.7742 37.2071 33.0556 37.2071C31.6517 37.2071 30.6611 37.8146 29.8127 38.4769V41.0903C30.0782 40.8906 30.33 40.6881 30.5626 40.4965C31.5259 39.7001 32.117 39.2486 33.0529 39.2486C33.9888 39.2486 34.5799 39.7001 35.5432 40.4965C36.6379 41.4023 38.0007 42.5298 40.3569 42.5298C42.7132 42.5298 44.076 41.4023 45.1707 40.4965C46.1339 39.7001 46.7251 39.2486 47.661 39.2486C48.5969 39.2486 49.188 39.7001 50.1513 40.4965C50.2744 40.5978 50.4031 40.7045 50.5372 40.8112V38.206H50.5399ZM50.5399 32.6944C49.7736 32.1471 48.8706 31.6955 47.6637 31.6955C45.9451 31.6955 44.8423 32.6068 43.8708 33.4114C42.8555 34.2515 41.9798 34.974 40.3597 34.974C38.7396 34.974 37.8639 34.2488 36.8486 33.4114C35.8771 32.6068 34.7742 31.6955 33.0556 31.6955C31.6517 31.6955 30.6611 32.3031 29.8127 32.9653V35.5788C30.0782 35.379 30.33 35.1765 30.5626 34.985C31.5259 34.1886 32.117 33.7371 33.0529 33.7371C33.9888 33.7371 34.5799 34.1886 35.5432 34.985C36.6379 35.8908 38.0007 37.0183 40.3569 37.0183C42.7132 37.0183 44.076 35.8908 45.1707 34.985C46.1339 34.1886 46.7251 33.7371 47.661 33.7371C48.5969 33.7371 49.188 34.1886 50.1513 34.985C50.2744 35.0862 50.4031 35.1929 50.5372 35.2997V32.6944H50.5399ZM50.5399 27.1828C49.7736 26.6355 48.8706 26.184 47.6637 26.184C45.9451 26.184 44.8423 27.0953 43.8708 27.8998C42.8555 28.74 41.9798 29.4625 40.3597 29.4625C38.7396 29.4625 37.8639 28.7372 36.8486 27.8998C35.8771 27.0953 34.7742 26.184 33.0556 26.184C31.6517 26.184 30.6611 26.7915 29.8127 27.4538V30.0672C30.0782 29.8675 30.33 29.665 30.5626 29.4734C31.5259 28.677 32.117 28.2255 33.0529 28.2255C33.9888 28.2255 34.5799 28.677 35.5432 29.4734C36.6379 30.3792 38.0007 31.5067 40.3569 31.5067C42.7132 31.5067 44.076 30.3792 45.1707 29.4734C46.1339 28.677 46.7251 28.2255 47.661 28.2255C48.5969 28.2255 49.188 28.677 50.1513 29.4734C50.2744 29.5747 50.4031 29.6814 50.5372 29.7881V27.1828H50.5399ZM16.2145 10.8863C17.3365 10.8863 18.2478 9.97498 18.2478 8.85297C18.2478 7.73095 17.3365 6.81966 16.2145 6.81966C15.0925 6.81966 14.1812 7.73095 14.1812 8.85297C14.1812 9.97498 15.0925 10.8863 16.2145 10.8863ZM14.2824 19.534H11.6635V21.8191H14.2824V19.534ZM14.2824 23.8633H11.6635V26.1484H14.2824V23.8633ZM4.15693 45.6632H51.3363C49.6642 57.1844 39.7248 66.062 27.7466 66.062C15.7684 66.062 5.83174 57.1844 4.15693 45.6632ZM26.5945 61.6506C18.3846 60.8624 11.6252 55.162 8.77908 46.7278H6.63357C9.63564 56.41 17.3365 62.9505 26.7258 63.7113C26.734 64.1245 26.7258 64.5377 26.7149 64.9509C27.0679 64.9674 27.4237 64.981 27.7822 64.981C28.1106 64.981 28.4362 64.9701 28.7646 64.9564C28.833 62.6303 28.5895 60.3233 28.0285 58.0629C29.5637 56.9874 31.2057 56.1226 32.8996 55.474C33.6495 58.3338 33.8575 61.3304 33.5126 64.275C34.2324 64.0916 34.9384 63.8727 35.6308 63.6209C35.8716 60.6709 35.6062 57.6852 34.8426 54.8309C36.5886 54.3438 38.3674 54.0866 40.1216 54.0565C40.6881 56.2923 40.9207 58.5801 40.8194 60.8898C41.5392 60.3753 42.2233 59.8116 42.8801 59.2068C42.8363 57.5019 42.6256 55.8079 42.2452 54.1413C43.6765 54.2781 45.0776 54.5764 46.4131 55.0416C46.7935 54.4642 47.1547 53.8676 47.4858 53.2546C40.8441 50.7725 32.7327 52.0724 26.4166 56.7082C24.8485 56.3032 23.2968 55.7751 21.8218 54.9924C29.0985 48.6653 40.8824 47.6363 48.8541 50.2416C49.0922 49.6067 49.3057 48.9581 49.4972 48.2986C40.6525 45.3841 27.9135 46.5964 20.0211 53.8676C18.9538 53.0904 17.9495 52.1326 17.0355 50.9367C19.0633 49.2865 22.2706 47.6035 24.1479 46.7251H19.7037C18.3326 47.5077 16.978 48.3725 15.8943 49.2345C15.4482 48.4765 15.0323 47.6418 14.6491 46.7251H12.4489C15.5194 54.809 20.9434 57.4307 26.0937 58.7306C26.3235 59.6966 26.4932 60.6709 26.5972 61.6506H26.5945ZM3.95168 43.6217C3.92431 43.1592 3.90789 42.6913 3.90789 42.2233V3.74643H26.7286V43.619H3.95168V43.6217ZM21.6001 29.2463H19.5586V33.1377C19.5586 37.2098 16.2473 40.5211 12.1752 40.5211H8.07303V42.5626H12.1752C17.3721 42.5626 21.6001 38.3346 21.6001 33.1377V29.2463ZM16.3212 37.6449H16.6989C17.279 37.062 17.747 36.3697 18.0699 35.6034H16.3212C12.9716 35.6034 10.1419 32.7026 10.1419 29.2682H8.1004C8.1004 33.8876 11.7894 37.6477 16.3212 37.6477V37.6449ZM12.1396 8.85297C12.1396 11.0997 13.9677 12.9305 16.2145 12.9305C18.4612 12.9305 20.292 11.1025 20.292 8.85297C20.292 6.60346 18.464 4.77814 16.2145 4.77814C13.965 4.77814 12.1396 6.6062 12.1396 8.85297ZM4.96149 9.45776C4.96149 13.2343 8.03472 16.3048 11.8085 16.3048H25.6613V14.2633H11.8085C9.15947 14.2633 7.00301 12.1068 7.00301 9.45776V4.77814H4.96149V9.45776ZM4.96149 42.5626H7.00301V28.1954H23.6088V42.5626H25.6503V17.4925H4.96149V42.5599V42.5626ZM55.4959 0V42.7378C55.4959 57.77 43.0498 70 27.7493 70C12.4489 70 0 57.77 0 42.7378V0H55.4959ZM53.6323 1.70491H1.86364V42.2233C1.86364 56.4948 13.4751 68.1063 27.7466 68.1063C42.0181 68.1063 53.6295 56.4948 53.6295 42.2233V1.70491H53.6323ZM9.62196 19.534H7.00301V21.8191H9.62196V19.534ZM9.62196 23.8633H7.00301V26.1484H9.62196V23.8633ZM81.9344 20.8831H87.9249C89.3123 20.8831 90.4644 20.5 91.2115 19.8432C91.9778 19.1864 92.3609 18.3463 92.3609 17.123C92.3609 15.5166 91.3757 14.3098 89.9308 13.8911V13.8364C91.1541 13.4176 91.9778 12.5583 91.9778 11.2256C91.9778 10.2021 91.6494 9.41671 90.9379 8.77908C90.2619 8.17702 89.1837 7.82947 87.7771 7.82947H81.9317V20.8886L81.9344 20.8831ZM84.5835 13.0838V9.97772H87.5062C88.6747 9.97772 89.3862 10.5442 89.3862 11.513C89.3862 12.5365 88.6008 13.0838 87.4514 13.0838H84.5835ZM84.5835 15.0377H87.5609C88.765 15.0377 89.679 15.6781 89.679 16.9178C89.679 17.9769 88.9128 18.6884 87.632 18.6884H84.5807V15.035L84.5835 15.0377ZM98.4827 21.1568C100.894 21.1568 102.374 19.7502 102.719 18.0891H100.272C99.9988 18.8006 99.4324 19.2412 98.4636 19.2412C97.057 19.2412 96.2524 18.3463 96.0718 16.9041H102.867C102.867 13.5627 101.26 11.2612 98.2447 11.2612C95.5053 11.2612 93.6252 13.4176 93.6252 16.1926C93.6252 18.9675 95.3794 21.1595 98.4827 21.1595V21.1568ZM98.283 13.1741C99.4159 13.1741 100.201 13.9951 100.275 15.1828H96.1101C96.329 13.9595 96.9694 13.1741 98.283 13.1741ZM110.283 20.8831H112.675V20.7928C112.456 20.6286 112.346 20.2072 112.346 19.4957V14.7285C112.346 12.5365 111.213 11.2776 108.4 11.2776C105.587 11.2776 104.438 12.7198 104.364 14.3645H106.575C106.649 13.4696 107.215 13.0482 108.384 13.0482C109.424 13.0482 109.955 13.4861 109.955 14.162C109.955 14.8735 109.243 15.0022 107.689 15.2211C105.606 15.5139 103.926 16.1707 103.926 18.2341C103.926 20.0977 105.278 21.1021 107.196 21.1021C108.803 21.1021 109.478 20.5548 109.955 19.8405H109.99C110.045 20.2619 110.135 20.6998 110.283 20.8804V20.8831ZM107.798 19.3671C106.922 19.3671 106.337 19.0578 106.337 18.1794C106.337 17.3009 106.977 17.0108 108.272 16.718C108.893 16.573 109.569 16.4252 110.007 16.1707V17.5773C110.007 18.4913 109.221 19.3671 107.795 19.3671H107.798ZM118.63 21.1568C121.131 21.1568 122.685 19.5668 122.85 17.5773H120.458C120.294 18.6364 119.582 19.1673 118.578 19.1673C117.062 19.1673 116.35 17.9796 116.35 16.209C116.35 14.4384 117.116 13.2507 118.616 13.2507C119.53 13.2507 120.168 13.8719 120.332 14.6929H122.762C122.434 12.6651 120.937 11.2585 118.507 11.2585C115.658 11.2585 113.83 13.4149 113.83 16.209C113.83 19.0031 115.674 21.1595 118.632 21.1595L118.63 21.1568ZM126.777 7.824H124.292V20.8831H126.777V15.5686C126.777 14.2906 127.581 13.4122 128.676 13.4122C129.771 13.4122 130.301 14.1237 130.301 15.128V20.8804H132.786V14.7613C132.786 12.7143 131.489 11.2557 129.554 11.2557C128.276 11.2557 127.51 11.7483 126.834 12.7362H126.779V7.824H126.777ZM85.3689 40.5868H87.7798L92.1803 27.5277H89.4957L87.2133 35.0889C86.9588 35.9291 86.6469 37.1715 86.6469 37.1715H86.6113C86.6113 37.1715 86.3021 35.9482 86.0448 35.0889L83.7433 27.5277H80.9684L85.3689 40.5868ZM96.548 40.8605C99.4515 40.8605 101.444 38.704 101.444 35.9099C101.444 33.1158 99.4515 30.9594 96.548 30.9594C93.6444 30.9594 91.6521 33.1158 91.6521 35.9099C91.6521 38.704 93.6417 40.8605 96.548 40.8605ZM96.548 38.9613C95.0127 38.9613 94.1726 37.738 94.1726 35.9099C94.1726 34.0819 95.0127 32.8422 96.548 32.8422C98.0832 32.8422 98.9233 34.0846 98.9233 35.9099C98.9233 37.7353 98.064 38.9613 96.548 38.9613ZM102.995 40.5868H105.48V27.5277H102.995V40.5868ZM107.525 40.5868H110.009V27.5277H107.525V40.5868ZM116.419 40.8605C118.83 40.8605 120.31 39.4539 120.655 37.7927H118.208C117.935 38.5042 117.368 38.9448 116.399 38.9448C114.993 38.9448 114.188 38.05 114.008 36.6078H120.803C120.803 33.2664 119.196 30.9649 116.18 30.9649C113.441 30.9649 111.561 33.1213 111.561 35.8962C111.561 38.6712 113.315 40.8632 116.419 40.8632V40.8605ZM116.219 32.8778C117.352 32.8778 118.137 33.6987 118.211 34.8864H114.046C114.265 33.6632 114.905 32.8778 116.219 32.8778ZM122.248 43.6546H123.709C125.608 43.6546 126.303 42.9047 127.015 40.8222L130.285 31.2166H127.784L126.467 35.4365C126.175 36.2958 125.92 37.4835 125.92 37.4835H125.885C125.885 37.4835 125.575 36.2958 125.282 35.4365L123.895 31.2166H121.284L123.805 37.883C124.336 39.3088 124.516 39.9109 124.516 40.4226C124.516 41.1889 124.114 41.7006 123.129 41.7006H122.253V43.6546H122.248ZM136.713 40.8605C139.07 40.8605 140.676 38.9421 140.676 35.9099C140.676 32.8778 138.996 30.9594 136.639 30.9594C135.342 30.9594 134.54 31.5614 134.029 32.3468H133.974V27.5249H131.489V40.5841H133.881V39.4155H133.917C134.464 40.2913 135.397 40.8577 136.711 40.8577L136.713 40.8605ZM136.166 38.7779C134.779 38.7779 133.919 37.6833 133.919 35.9647C133.919 34.2461 134.505 32.9708 136.076 32.9708C137.463 32.9708 138.158 34.1749 138.158 35.9099C138.158 37.6449 137.447 38.7779 136.166 38.7779ZM148.092 40.5868H150.484V40.4965C150.265 40.3323 150.156 39.9109 150.156 39.1993V34.4322C150.156 32.2401 149.023 30.9813 146.209 30.9813C143.396 30.9813 142.247 32.4235 142.173 34.0682H144.384C144.458 33.1733 145.024 32.7546 146.193 32.7546C147.233 32.7546 147.764 33.1925 147.764 33.8684C147.764 34.5799 147.052 34.7085 145.498 34.9275C143.415 35.2203 141.735 35.8771 141.735 37.9405C141.735 39.8041 143.087 40.8085 145.005 40.8085C146.612 40.8085 147.288 40.2612 147.764 39.5469H147.799C147.854 39.9683 147.944 40.4062 148.092 40.5868ZM145.607 39.0707C144.732 39.0707 144.146 38.7615 144.146 37.883C144.146 37.0046 144.786 36.7145 146.081 36.4217C146.702 36.2766 147.378 36.1289 147.816 35.8744V37.281C147.816 38.195 147.03 39.0707 145.605 39.0707H145.607ZM152.129 40.5868H154.614V27.5277H152.129V40.5868ZM156.658 40.5868H159.143V27.5277H156.658V40.5868ZM81.9508 60.2905H84.5999V47.2313H81.9508V60.2905ZM89.2193 50.9203H86.7892V60.2905H89.274V54.976C89.274 53.698 90.0786 52.8195 91.1732 52.8195C92.2679 52.8195 92.7988 53.531 92.7988 54.5354V60.2877H95.2836V54.1687C95.2836 52.1217 93.9865 50.663 92.0517 50.663C90.7737 50.663 89.9144 51.194 89.2768 52.1983H89.222V50.9203H89.2193ZM100.981 60.5641C103.318 60.5641 104.927 59.4312 104.927 57.5511C104.927 55.3591 103.192 54.9212 101.622 54.5928C100.289 54.3192 99.0465 54.2453 99.0465 53.4407C99.0465 52.7648 99.6869 52.4008 100.653 52.4008C101.712 52.4008 102.352 52.7648 102.462 53.7718H104.709C104.525 51.8918 103.157 50.6658 100.691 50.6658C98.5539 50.6658 96.8736 51.6345 96.8736 53.6624C96.8736 55.6902 98.5183 56.1637 100.199 56.4948C101.477 56.7493 102.664 56.8423 102.664 57.7372C102.664 58.394 102.043 58.8154 100.948 58.8154C99.8538 58.8154 99.0684 58.3393 98.9014 57.2638H96.5999C96.745 59.2533 98.2611 60.5696 100.984 60.5696L100.981 60.5641ZM105.675 52.565H106.972V58.0629C106.972 59.8335 108.304 60.3096 109.511 60.3096C110.497 60.3096 111.063 60.2741 111.063 60.2741V58.4487C111.063 58.4487 110.642 58.4679 110.332 58.4679C109.785 58.4679 109.402 58.2298 109.402 57.5374V52.5705H111.008V50.9258H109.402V48.0031H106.972V50.9258H105.675V52.5705V52.565ZM112.653 49.4589H115.138V47.2313H112.653V49.4589ZM112.653 60.2905H115.138V50.9203H112.653V60.2905ZM116.561 52.565H117.858V58.0629C117.858 59.8335 119.191 60.3096 120.398 60.3096C121.383 60.3096 121.949 60.2741 121.949 60.2741V58.4487C121.949 58.4487 121.528 58.4679 121.219 58.4679C120.671 58.4679 120.288 58.2298 120.288 57.5374V52.5705H121.895V50.9258H120.288V48.0031H117.858V50.9258H116.561V52.5705V52.565ZM131.848 60.2905V50.9203H129.363V56.3251C129.363 57.5675 128.651 58.4433 127.48 58.4433C126.421 58.4433 125.928 57.8412 125.928 56.7438V50.9176H123.463V57.1653C123.463 59.2122 124.631 60.545 126.714 60.545C128.03 60.545 128.758 60.0524 129.398 59.1931H129.453V60.2877H131.845L131.848 60.2905ZM133.273 52.565H134.571V58.0629C134.571 59.8335 135.903 60.3096 137.11 60.3096C138.095 60.3096 138.662 60.2741 138.662 60.2741V58.4487C138.662 58.4487 138.24 58.4679 137.931 58.4679C137.384 58.4679 137.001 58.2298 137.001 57.5374V52.5705H138.607V50.9258H137.001V48.0031H134.571V50.9258H133.273V52.5705V52.565ZM144.562 60.5641C146.973 60.5641 148.453 59.1575 148.798 57.4964H146.352C146.078 58.2079 145.512 58.6485 144.543 58.6485C143.136 58.6485 142.332 57.7536 142.151 56.3114H148.946C148.946 52.97 147.34 50.6685 144.324 50.6685C141.585 50.6685 139.704 52.825 139.704 55.5999C139.704 58.3748 141.459 60.5669 144.562 60.5669V60.5641ZM144.362 52.5814C145.495 52.5814 146.281 53.4024 146.354 54.5901H142.189C142.408 53.3668 143.049 52.5814 144.362 52.5814Z" fill="white"/>
</g>
</g>
</g>
<defs>
<clipPath id="clip0_59_66">
<rect width="1920" height="7277" fill="white" transform="translate(-169 -25)"/>
</clipPath>
<clipPath id="clip1_59_66">
<rect width="159.143" height="70" fill="white"/>
</clipPath>
</defs>
</svg>
