<svg width="102" height="182" viewBox="0 0 102 182" fill="none" xmlns="http://www.w3.org/2000/svg">
<g clip-path="url(#clip0_174_75)">
<path d="M30.7996 31.3744H27.3826V34.3787H30.7996V31.3744Z" fill="white"/>
<path d="M30.7996 25.6824H27.3826V28.6867H30.7996V25.6824Z" fill="white"/>
<path d="M21.1555 14.3128C22.6195 14.3128 23.8085 13.1147 23.8085 11.6395C23.8085 10.1643 22.6195 8.96619 21.1555 8.96619C19.6916 8.96619 18.5026 10.1643 18.5026 11.6395C18.5026 13.1147 19.6916 14.3128 21.1555 14.3128Z" fill="white"/>
<path d="M24.719 25.6824H21.3019V28.6867H24.719V25.6824Z" fill="white"/>
<path d="M67.3085 4.92566H37.5336V30.3238H67.3085V4.92566ZM61.2742 6.2785H64.1521L58.557 20.0731C57.7822 19.645 56.961 19.2924 56.1041 19.0261L61.2742 6.2785ZM50.9553 6.2785H53.619V18.5188C53.1798 18.472 52.737 18.4504 52.2872 18.4504C51.8373 18.4504 51.3945 18.472 50.9553 18.5188V6.2785ZM43.1894 6.2785L48.3738 19.0585C47.5169 19.332 46.6992 19.6918 45.928 20.1271L40.3115 6.2785H43.1894ZM38.894 15.662L43.8571 21.5771C43.1751 22.16 42.5538 22.8148 42.004 23.5272L38.894 19.8213V15.662ZM39.6403 28.3845L38.894 28.0175V25.0275L40.5615 25.8479C40.1723 26.6502 39.8616 27.4994 39.6403 28.3845ZM60.96 28.9242C59.8246 25.1787 56.3683 22.4442 52.2836 22.4442C48.1989 22.4442 44.7461 25.1787 43.6071 28.9242H40.8435C42.0468 23.6819 46.7171 19.7601 52.2836 19.7601C57.8501 19.7601 62.5168 23.6819 63.7236 28.9242H60.96ZM65.9338 27.8376L64.9198 28.3377C64.6948 27.4562 64.3806 26.6071 63.9879 25.8083L65.9338 24.8512V27.8412V27.8376ZM65.9338 19.3823L62.5132 23.4588C61.9562 22.75 61.3349 22.1024 60.6494 21.5231L65.9338 15.2231V19.3823Z" fill="white"/>
<path d="M67.3085 55.5132V33.0115H37.5336V57.3518H67.2513C67.2871 56.7437 67.3085 56.1285 67.3085 55.5132ZM65.9374 53.6567C65.766 53.5163 65.5982 53.3796 65.4339 53.2429C64.1771 52.1959 63.4059 51.6022 62.1847 51.6022C60.9636 51.6022 60.1924 52.1959 58.9355 53.2429C57.5073 54.4338 55.7292 55.9162 52.6549 55.9162C49.5807 55.9162 47.8025 54.4338 46.3743 53.2429C45.1175 52.1959 44.3462 51.6022 43.1251 51.6022C41.904 51.6022 41.1327 52.1959 39.8759 53.2429C39.5724 53.4983 39.2404 53.761 38.8976 54.0237V50.5876C40.0009 49.7169 41.297 48.9181 43.1287 48.9181C45.371 48.9181 46.8099 50.1162 48.0775 51.1741C49.4021 52.2786 50.5447 53.2285 52.6585 53.2285C54.7723 53.2285 55.9148 52.275 57.2395 51.1741C58.5071 50.1162 59.946 48.9181 62.1883 48.9181C63.7629 48.9181 64.9376 49.5118 65.9409 50.2314V53.6567H65.9374ZM65.9374 46.4103C65.766 46.27 65.5982 46.1333 65.4339 45.9966C64.1771 44.9496 63.4059 44.3559 62.1847 44.3559C60.9636 44.3559 60.1924 44.9496 58.9355 45.9966C57.5073 47.1875 55.7292 48.6699 52.6549 48.6699C49.5807 48.6699 47.8025 47.1875 46.3743 45.9966C45.1175 44.9496 44.3462 44.3559 43.1251 44.3559C41.904 44.3559 41.1327 44.9496 39.8759 45.9966C39.5724 46.252 39.2404 46.5147 38.8976 46.7773V43.3413C40.0009 42.4706 41.297 41.6718 43.1287 41.6718C45.371 41.6718 46.8099 42.8699 48.0775 43.9277C49.4021 45.0323 50.5447 45.9822 52.6585 45.9822C54.7723 45.9822 55.9148 45.0287 57.2395 43.9277C58.5071 42.8699 59.946 41.6718 62.1883 41.6718C63.7629 41.6718 64.9376 42.2655 65.9409 42.9851V46.4103H65.9374ZM65.9374 39.164C65.766 39.0237 65.5982 38.887 65.4339 38.7502C64.1771 37.7032 63.4059 37.1096 62.1847 37.1096C60.9636 37.1096 60.1924 37.7032 58.9355 38.7502C57.5073 39.9412 55.7292 41.4235 52.6549 41.4235C49.5807 41.4235 47.8025 39.9412 46.3743 38.7502C45.1175 37.7032 44.3462 37.1096 43.1251 37.1096C41.904 37.1096 41.1327 37.7032 39.8759 38.7502C39.5724 39.0057 39.2404 39.2684 38.8976 39.531V36.0949C40.0009 35.2242 41.297 34.4255 43.1287 34.4255C45.371 34.4255 46.8099 35.6236 48.0775 36.6814C49.4021 37.786 50.5447 38.7359 52.6585 38.7359C54.7723 38.7359 55.9148 37.7824 57.2395 36.6814C58.5071 35.6236 59.946 34.4255 62.1883 34.4255C63.7629 34.4255 64.9376 35.0191 65.9409 35.7387V39.164H65.9374Z" fill="white"/>
<path d="M36.2018 86.8587C51.8301 86.8587 64.7948 75.1869 66.98 60.0394H5.42365C7.60525 75.1869 20.5735 86.8587 36.2018 86.8587ZM34.0416 77.2198C27.3218 75.5107 20.245 72.0639 16.2389 61.4354H19.1096C19.6095 62.6408 20.1522 63.7381 20.7342 64.7348C22.1481 63.605 23.9155 62.4645 25.7044 61.4354H31.503C29.0536 62.5868 24.8689 64.8032 22.2231 66.9727C23.4192 68.545 24.7296 69.8043 26.1186 70.8262C36.4125 61.2663 53.037 59.6724 64.577 63.5043C64.3271 64.3714 64.0521 65.2241 63.7379 66.0588C53.3369 62.6336 37.9585 63.9864 28.468 72.3049C30.3925 73.334 32.417 74.0284 34.463 74.5609C42.7038 68.4623 53.2905 66.7569 61.9526 70.0202C61.5206 70.8262 61.0493 71.6069 60.553 72.3697C58.8106 71.758 56.9824 71.3623 55.115 71.186C55.6149 73.3771 55.8898 75.6043 55.9434 77.8458C55.0865 78.641 54.1938 79.3821 53.2548 80.0586C53.3869 77.0255 53.0834 74.0176 52.3443 71.0744C50.0556 71.1104 47.7347 71.4486 45.4567 72.0926C46.4529 75.8489 46.7992 79.7707 46.485 83.6494C45.5817 83.9804 44.6605 84.2682 43.7214 84.5093C44.1713 80.6378 43.8999 76.6981 42.9216 72.9382C40.7114 73.7909 38.5691 74.9279 36.566 76.3419C37.2944 79.3138 37.6158 82.3469 37.5265 85.4052C37.1016 85.4231 36.6767 85.4375 36.2447 85.4375C35.7805 85.4375 35.3163 85.4232 34.8521 85.398C34.87 84.8547 34.8771 84.3078 34.8664 83.7681C22.6159 82.7678 12.5683 74.1687 8.65143 61.439H11.4507C15.1641 72.5316 23.9798 80.0226 34.695 81.0588C34.5558 79.7707 34.338 78.4898 34.0381 77.2198H34.0416Z" fill="white"/>
<path d="M24.719 31.3744H21.3019V34.3787H24.719V31.3744Z" fill="white"/>
<path d="M0 0V56.1932C0 75.9569 16.2389 92.0362 36.2018 92.0362C56.1648 92.0362 72.4037 75.9569 72.4037 56.1932V0H0ZM69.9757 55.5132C69.9757 74.2766 54.8258 89.5428 36.2054 89.5428C17.585 89.5428 2.43155 74.2766 2.43155 55.5132V2.24154H69.9757V55.5132Z" fill="white"/>
<path d="M12.554 31.3744H9.13702V34.3787H12.554V31.3744Z" fill="white"/>
<path d="M18.6347 25.6824H15.2177V28.6867H18.6347V25.6824Z" fill="white"/>
<path d="M34.87 57.3518V4.92566H5.09515V55.5096C5.09515 56.1284 5.11658 56.7401 5.15228 57.3482H34.87V57.3518ZM28.1824 43.5679C28.1824 50.4005 22.6658 55.9593 15.8854 55.9593H10.5331V53.2753H15.8854C21.1983 53.2753 25.5187 48.9217 25.5187 43.5679V38.4516H28.1824V43.5679ZM10.5688 38.4768H13.2324C13.2324 42.9922 16.9244 46.8061 21.2948 46.8061H23.5763C23.155 47.8171 22.5444 48.7274 21.7875 49.4902H21.2948C15.3819 49.4902 10.5688 44.5466 10.5688 38.4732V38.4768ZM21.1555 6.2785C24.0869 6.2785 26.4756 8.68195 26.4756 11.6359C26.4756 14.5898 24.0905 16.9969 21.1555 16.9969C18.2205 16.9969 15.8389 14.5934 15.8389 11.6359C15.8389 8.67835 18.2241 6.2785 21.1555 6.2785ZM6.46982 6.2785H9.13345V12.431C9.13345 15.9139 11.947 18.7491 15.4033 18.7491H33.4775V21.4332H15.4033C10.476 21.4332 6.46982 17.3926 6.46982 12.431V6.2785ZM6.46982 22.9947H33.4632V55.9521H30.7996V37.0628H9.13702V55.9521H6.47339V22.9983L6.46982 22.9947Z" fill="white"/>
<path d="M12.554 25.6824H9.13702V28.6867H12.554V25.6824Z" fill="white"/>
<path d="M18.6347 31.3744H15.2177V34.3787H18.6347V31.3744Z" fill="white"/>
<path d="M1.26398 112.66H8.89068C10.7259 112.66 12.1327 113.117 13.0147 113.908C13.943 114.75 14.3715 115.783 14.3715 117.125C14.3715 118.877 13.3003 120.007 11.7007 120.557V120.629C13.5824 121.183 14.8714 122.766 14.8714 124.879C14.8714 126.487 14.3715 127.591 13.3717 128.455C12.3934 129.318 10.8938 129.822 9.08349 129.822H1.26398V112.653V112.66ZM8.46221 119.575C9.96184 119.575 10.9866 118.855 10.9866 117.51C10.9866 116.236 10.0583 115.491 8.53362 115.491H4.72027V119.575H8.46221ZM4.72027 126.947H8.70144C10.3689 126.947 11.3722 126.012 11.3722 124.619C11.3722 122.986 10.1796 122.148 8.60861 122.148H4.72384V126.951L4.72027 126.947Z" fill="white"/>
<path d="M16.5138 123.659C16.5138 120.007 18.9668 117.175 22.5409 117.175C26.4721 117.175 28.5716 120.201 28.5716 124.594H19.7059C19.9451 126.49 20.9913 127.667 22.8265 127.667C24.0905 127.667 24.8296 127.091 25.1867 126.152H28.3787C27.9253 128.336 25.9972 130.186 22.8515 130.186C18.7989 130.186 16.5138 127.329 16.5138 123.655V123.659ZM19.7559 122.338H25.1902C25.0938 120.777 24.0691 119.697 22.5909 119.697C20.8734 119.697 20.0415 120.73 19.7559 122.338Z" fill="white"/>
<path d="M37.8693 128.459H37.8229C37.2016 129.394 36.3197 130.117 34.2238 130.117C31.7208 130.117 29.957 128.797 29.957 126.346C29.957 123.634 32.1493 122.77 34.8665 122.385C36.891 122.097 37.8229 121.928 37.8229 120.993C37.8229 120.104 37.1302 119.528 35.7734 119.528C34.2488 119.528 33.5097 120.079 33.4133 121.259H30.5283C30.6247 119.097 32.2207 117.2 35.7948 117.2C39.3689 117.2 40.9436 118.859 40.9436 121.737V128.005C40.9436 128.941 41.0864 129.495 41.372 129.711V129.829H38.2514C38.0621 129.588 37.9407 129.013 37.8693 128.462V128.459ZM37.8943 125.479V123.63C37.323 123.965 36.4411 124.159 35.6306 124.35C33.9381 124.735 33.1062 125.12 33.1062 126.271C33.1062 127.422 33.8703 127.832 35.0129 127.832C36.8731 127.832 37.8979 126.681 37.8979 125.479H37.8943Z" fill="white"/>
<path d="M42.8716 123.68C42.8716 120.007 45.2532 117.172 48.9737 117.172C52.1443 117.172 54.0974 119.021 54.5259 121.687H51.3552C51.141 120.608 50.3055 119.791 49.1165 119.791C47.1634 119.791 46.1601 121.302 46.1601 123.68C46.1601 126.059 47.0884 127.57 49.0665 127.57C50.3769 127.57 51.3053 126.872 51.5195 125.479H54.6402C54.4259 128.095 52.4014 130.186 49.1344 130.186C45.2746 130.186 42.868 127.35 42.868 123.677L42.8716 123.68Z" fill="white"/>
<path d="M59.7711 119.118H59.8425C60.7244 117.823 61.7242 117.172 63.3916 117.172C65.9196 117.172 67.6085 119.093 67.6085 121.781V129.826H64.3664V122.263C64.3664 120.942 63.6023 120.007 62.2455 120.007C60.8173 120.007 59.7675 121.158 59.7675 122.842V129.829H56.5255V112.66H59.7675V119.118H59.7711Z" fill="white"/>
<path d="M0 138.565H3.62054L6.62338 148.506C6.95544 149.636 7.36248 151.244 7.36248 151.244H7.4089C7.4089 151.244 7.81237 149.611 8.148 148.506L11.1258 138.565H14.6286L8.88711 155.735H5.74145L0 138.565Z" fill="white"/>
<path d="M13.943 149.586C13.943 145.912 16.5388 143.077 20.3307 143.077C24.1226 143.077 26.7184 145.912 26.7184 149.586C26.7184 153.259 24.1191 156.095 20.3307 156.095C16.5424 156.095 13.943 153.259 13.943 149.586ZM23.4264 149.586C23.4264 147.186 22.3052 145.553 20.3271 145.553C18.3491 145.553 17.2279 147.186 17.2279 149.586C17.2279 151.986 18.3241 153.598 20.3271 153.598C22.3302 153.598 23.4264 151.989 23.4264 149.586Z" fill="white"/>
<path d="M28.743 138.565H31.985V155.735H28.743V138.565Z" fill="white"/>
<path d="M34.6522 138.565H37.8943V155.735H34.6522V138.565Z" fill="white"/>
<path d="M39.9188 149.564C39.9188 145.912 42.3717 143.081 45.9459 143.081C49.877 143.081 51.9765 146.107 51.9765 150.5H43.1108C43.3501 152.396 44.3962 153.572 46.2315 153.572C47.4955 153.572 48.2346 152.997 48.5916 152.058H51.7837C51.3302 154.242 49.4022 156.091 46.2565 156.091C42.2039 156.091 39.9188 153.234 39.9188 149.561V149.564ZM43.1608 148.244H48.5952C48.4988 146.682 47.4741 145.603 45.9958 145.603C44.2784 145.603 43.4465 146.635 43.1608 148.244Z" fill="white"/>
<path d="M53.8582 157.199H55.0008C56.2862 157.199 56.8111 156.526 56.8111 155.519C56.8111 154.846 56.5718 154.054 55.8827 152.18L52.5942 143.415H56.0005L57.8108 148.963C58.1929 150.093 58.5963 151.655 58.5963 151.655H58.6428C58.6428 151.655 58.9748 150.093 59.3569 148.963L61.0743 143.415H64.3378L60.071 156.044C59.1426 158.782 58.2357 159.768 55.7577 159.768H53.8511V157.199H53.8582Z" fill="white"/>
<path d="M69.0866 154.198H69.0402V155.735H65.9196V138.565H69.1616V144.905H69.233C69.9007 143.872 70.9505 143.081 72.6393 143.081C75.7136 143.081 77.9059 145.747 77.9059 149.589C77.9059 153.432 75.81 156.098 72.7357 156.098C71.0219 156.098 69.8043 155.353 69.0902 154.202L69.0866 154.198ZM74.6139 149.589C74.6139 147.308 73.7069 145.725 71.8967 145.725C69.8472 145.725 69.0831 147.38 69.0831 149.661C69.0831 151.942 70.2042 153.36 72.0145 153.36C73.6819 153.36 74.6139 151.968 74.6139 149.589Z" fill="white"/>
<path d="M87.2001 154.364H87.1536C86.5324 155.299 85.6504 156.023 83.5545 156.023C81.0516 156.023 79.2877 154.702 79.2877 152.252C79.2877 149.539 81.48 148.676 84.1972 148.291C86.2217 148.003 87.1536 147.834 87.1536 146.898C87.1536 146.009 86.461 145.434 85.1042 145.434C83.5795 145.434 82.8404 145.984 82.744 147.161H79.859C79.9554 144.998 81.5515 143.102 85.1256 143.102C88.6997 143.102 90.2743 144.761 90.2743 147.639V153.907C90.2743 154.842 90.4171 155.397 90.7028 155.612V155.731H87.5821C87.3929 155.49 87.2715 154.914 87.2001 154.364ZM87.2251 151.385V149.535C86.6538 149.87 85.7718 150.064 84.9613 150.255C83.2689 150.64 82.437 151.025 82.437 152.176C82.437 153.328 83.201 153.738 84.3436 153.738C86.2039 153.738 87.2286 152.587 87.2286 151.385H87.2251Z" fill="white"/>
<path d="M92.8487 138.565H96.0908V155.735H92.8487V138.565Z" fill="white"/>
<path d="M98.7579 138.565H102V155.735H98.7579V138.565Z" fill="white"/>
<path d="M1.2854 164.471H4.7417V181.64H1.2854V164.471Z" fill="white"/>
<path d="M10.7724 171.001H10.8438C11.6793 169.681 12.7969 168.983 14.4643 168.983C16.9923 168.983 18.6811 170.904 18.6811 173.592V181.637H15.4391V174.074C15.4391 172.753 14.675 171.818 13.3182 171.818C11.8899 171.818 10.8402 172.969 10.8402 174.653V181.64H7.59814V169.321H10.7688V171.001H10.7724Z" fill="white"/>
<path d="M20.3986 177.654H23.4014C23.6157 179.071 24.6154 179.694 26.0722 179.694C27.529 179.694 28.3109 179.14 28.3109 178.276C28.3109 177.1 26.7613 176.981 25.0939 176.643C22.9015 176.211 20.7556 175.61 20.7556 172.919C20.7556 170.227 22.948 168.979 25.7366 168.979C28.9536 168.979 30.7425 170.587 30.9781 173.063H28.0467C27.9039 171.742 27.0684 171.26 25.6866 171.26C24.4226 171.26 23.5907 171.739 23.5907 172.627C23.5907 173.685 25.2117 173.779 26.9506 174.142C29.0001 174.574 31.2638 175.149 31.2638 178.031C31.2638 180.507 29.1679 181.993 26.115 181.993C22.5623 181.993 20.5878 180.262 20.395 177.646L20.3986 177.654Z" fill="white"/>
<path d="M32.2457 169.321H33.9381V165.478H37.1088V169.321H39.2047V171.483H37.1088V178.013C37.1088 178.927 37.6086 179.237 38.3227 179.237C38.7262 179.237 39.2761 179.212 39.2761 179.212V181.611C39.2761 181.611 38.537 181.658 37.2516 181.658C35.677 181.658 33.9381 181.032 33.9381 178.704V171.476H32.2457V169.314V169.321Z" fill="white"/>
<path d="M41.347 164.471H44.589V167.399H41.347V164.471ZM41.347 169.321H44.589V181.64H41.347V169.321Z" fill="white"/>
<path d="M46.4457 169.321H48.1382V165.478H51.3088V169.321H53.4048V171.483H51.3088V178.013C51.3088 178.927 51.8087 179.237 52.5228 179.237C52.9263 179.237 53.4762 179.212 53.4762 179.212V181.611C53.4762 181.611 52.7371 181.658 51.4517 181.658C49.877 181.658 48.1382 181.032 48.1382 178.704V171.476H46.4457V169.314V169.321Z" fill="white"/>
<path d="M63.2738 181.64V180.201H63.2024C62.3668 181.331 61.4171 181.978 59.6996 181.978C56.9824 181.978 55.4578 180.226 55.4578 177.535V169.321H58.6749V176.981C58.6749 178.42 59.3176 179.215 60.6994 179.215C62.224 179.215 63.1559 178.064 63.1559 176.43V169.324H66.398V181.644H63.2773L63.2738 181.64Z" fill="white"/>
<path d="M68.2547 169.321H69.9471V165.478H73.1178V169.321H75.2137V171.483H73.1178V178.013C73.1178 178.927 73.6177 179.237 74.3318 179.237C74.7352 179.237 75.2851 179.212 75.2851 179.212V181.611C75.2851 181.611 74.546 181.658 73.2606 181.658C71.686 181.658 69.9471 181.032 69.9471 178.704V171.476H68.2547V169.314V169.321Z" fill="white"/>
<path d="M76.6419 175.47C76.6419 171.818 79.0949 168.986 82.669 168.986C86.6002 168.986 88.6997 172.012 88.6997 176.405H79.834C80.0732 178.301 81.1194 179.478 82.9546 179.478C84.2186 179.478 84.9577 178.902 85.3148 177.963H88.5069C88.0534 180.147 86.1253 181.996 82.9796 181.996C78.9271 181.996 76.6419 179.14 76.6419 175.466V175.47ZM79.884 174.149H85.3184C85.2219 172.588 84.1972 171.508 82.719 171.508C81.0016 171.508 80.1696 172.541 79.884 174.149Z" fill="white"/>
</g>
<defs>
<clipPath id="clip0_174_75">
<rect width="102" height="182" fill="white"/>
</clipPath>
</defs>
</svg>
