<svg width="960" height="522" viewBox="0 0 960 522" fill="none" xmlns="http://www.w3.org/2000/svg">
<path d="M1073.22 -157.825C1044.37 -157.825 1029.76 -175.506 1016.87 -191.103C1004.6 -205.948 994.009 -218.769 972.508 -218.769C951.007 -218.769 940.412 -205.948 928.145 -191.103C915.259 -175.506 900.65 -157.825 871.793 -157.825C842.936 -157.825 828.338 -175.506 815.441 -191.103C803.174 -205.948 792.589 -218.769 771.078 -218.769C749.567 -218.769 738.982 -205.948 726.715 -191.103C713.829 -175.506 699.22 -157.825 670.363 -157.825C641.506 -157.825 626.908 -175.506 614.011 -191.103C601.744 -205.948 591.159 -218.769 569.648 -218.769C548.137 -218.769 537.552 -205.948 525.285 -191.103C512.399 -175.506 497.79 -157.825 468.933 -157.825C440.076 -157.825 425.478 -175.506 412.581 -191.103C400.314 -205.948 389.729 -218.769 368.218 -218.769C346.707 -218.769 336.122 -205.948 323.855 -191.103C310.969 -175.506 296.36 -157.825 267.503 -157.825C238.646 -157.825 224.048 -175.506 211.151 -191.103C198.884 -205.948 188.299 -218.769 166.788 -218.769C145.277 -218.769 134.692 -205.948 122.425 -191.103C109.539 -175.506 94.9297 -157.825 66.0729 -157.825C37.2161 -157.825 22.6174 -175.506 9.72113 -191.103C-2.54584 -205.948 -13.1311 -218.769 -34.6422 -218.769C-56.1532 -218.769 -66.7385 -205.948 -79.0055 -191.103C-91.8915 -175.506 -106.5 -157.825 -135.357 -157.825C-164.214 -157.825 -178.813 -175.506 -191.709 -191.103C-203.904 -205.948 -214.499 -218.769 -236 -218.769V-234C-207.154 -234 -192.545 -216.319 -179.648 -200.722C-167.381 -185.877 -156.796 -173.056 -135.285 -173.056C-113.774 -173.056 -103.189 -185.877 -90.9217 -200.722C-78.046 -216.319 -63.437 -234 -34.5803 -234C-5.72348 -234 8.87514 -216.319 21.7715 -200.722C34.0384 -185.877 44.6237 -173.056 66.1348 -173.056C87.6458 -173.056 98.2311 -185.877 110.498 -200.722C123.384 -216.319 137.993 -234 166.85 -234C195.707 -234 210.305 -216.319 223.201 -200.722C235.468 -185.877 246.054 -173.056 267.565 -173.056C289.076 -173.056 299.661 -185.877 311.928 -200.722C324.814 -216.319 339.423 -234 368.28 -234C397.137 -234 411.735 -216.319 424.632 -200.722C436.899 -185.877 447.484 -173.056 468.995 -173.056C490.506 -173.056 501.091 -185.877 513.358 -200.722C526.244 -216.319 540.853 -234 569.71 -234C598.567 -234 613.165 -216.319 626.062 -200.722C638.329 -185.877 648.914 -173.056 670.425 -173.056C691.936 -173.056 702.521 -185.877 714.788 -200.722C727.674 -216.319 742.283 -234 771.14 -234C799.997 -234 814.595 -216.319 827.492 -200.722C839.759 -185.877 850.344 -173.056 871.855 -173.056C893.366 -173.056 903.951 -185.877 916.218 -200.722C929.104 -216.319 943.713 -234 972.57 -234C1001.43 -234 1016.04 -216.319 1028.92 -200.722C1041.19 -185.877 1051.78 -173.056 1073.29 -173.056C1094.79 -173.056 1105.38 -185.877 1117.65 -200.722C1130.53 -216.319 1145.14 -234 1174 -234V-218.769C1152.5 -218.769 1141.9 -205.948 1129.64 -191.103C1116.75 -175.506 1102.14 -157.825 1073.29 -157.825H1073.22Z" fill="url(#paint0_linear_193_321)"/>
<path d="M1073.22 212.989C1044.37 212.989 1029.76 195.307 1016.87 179.71C1004.6 164.866 994.009 152.045 972.508 152.045C951.007 152.045 940.412 164.866 928.145 179.71C915.259 195.307 900.65 212.989 871.793 212.989C842.936 212.989 828.338 195.307 815.441 179.71C803.174 164.866 792.589 152.045 771.078 152.045C749.567 152.045 738.982 164.866 726.715 179.71C713.829 195.307 699.22 212.989 670.363 212.989C641.506 212.989 626.908 195.307 614.011 179.71C601.744 164.866 591.159 152.045 569.648 152.045C548.137 152.045 537.552 164.866 525.285 179.71C512.399 195.307 497.79 212.989 468.933 212.989C440.076 212.989 425.478 195.307 412.581 179.71C400.314 164.866 389.729 152.045 368.218 152.045C346.707 152.045 336.122 164.866 323.855 179.71C310.969 195.307 296.36 212.989 267.503 212.989C238.646 212.989 224.048 195.307 211.151 179.71C198.884 164.866 188.299 152.045 166.788 152.045C145.277 152.045 134.692 164.866 122.425 179.71C109.539 195.307 94.9297 212.989 66.0729 212.989C37.2161 212.989 22.6174 195.307 9.72113 179.71C-2.54584 164.866 -13.1311 152.045 -34.6422 152.045C-56.1532 152.045 -66.7385 164.866 -79.0055 179.71C-91.8915 195.307 -106.5 212.989 -135.357 212.989C-164.214 212.989 -178.813 195.307 -191.709 179.71C-203.904 164.866 -214.499 152.045 -236 152.045V136.814C-207.154 136.814 -192.545 154.495 -179.648 170.092C-167.381 184.936 -156.796 197.758 -135.285 197.758C-113.774 197.758 -103.189 184.936 -90.9217 170.092C-78.046 154.495 -63.437 136.814 -34.5803 136.814C-5.72348 136.814 8.87514 154.495 21.7715 170.092C34.0384 184.936 44.6237 197.758 66.1348 197.758C87.6458 197.758 98.2311 184.936 110.498 170.092C123.384 154.495 137.993 136.814 166.85 136.814C195.707 136.814 210.305 154.495 223.201 170.092C235.468 184.936 246.054 197.758 267.565 197.758C289.076 197.758 299.661 184.936 311.928 170.092C324.814 154.495 339.423 136.814 368.28 136.814C397.137 136.814 411.735 154.495 424.632 170.092C436.899 184.936 447.484 197.758 468.995 197.758C490.506 197.758 501.091 184.936 513.358 170.092C526.244 154.495 540.853 136.814 569.71 136.814C598.567 136.814 613.165 154.495 626.062 170.092C638.329 184.936 648.914 197.758 670.425 197.758C691.936 197.758 702.521 184.936 714.788 170.092C727.674 154.495 742.283 136.814 771.14 136.814C799.997 136.814 814.595 154.495 827.492 170.092C839.759 184.936 850.344 197.758 871.855 197.758C893.366 197.758 903.951 184.936 916.218 170.092C929.104 154.495 943.713 136.814 972.57 136.814C1001.43 136.814 1016.04 154.495 1028.92 170.092C1041.19 184.936 1051.78 197.758 1073.29 197.758C1094.79 197.758 1105.38 184.936 1117.65 170.092C1130.53 154.495 1145.14 136.814 1174 136.814V152.045C1152.5 152.045 1141.9 164.866 1129.64 179.71C1116.75 195.307 1102.14 212.989 1073.29 212.989H1073.22Z" fill="url(#paint1_linear_193_321)"/>
<path d="M1073.22 27.5818C1044.37 27.5818 1029.76 9.90047 1016.87 -5.69647C1004.6 -20.541 994.009 -33.3622 972.508 -33.3622C951.007 -33.3622 940.412 -20.541 928.145 -5.69647C915.259 9.90047 900.65 27.5818 871.793 27.5818C842.936 27.5818 828.338 9.90047 815.441 -5.69647C803.174 -20.541 792.589 -33.3622 771.078 -33.3622C749.567 -33.3622 738.982 -20.541 726.715 -5.69647C713.829 9.90047 699.22 27.5818 670.363 27.5818C641.506 27.5818 626.908 9.90047 614.011 -5.69647C601.744 -20.541 591.159 -33.3622 569.648 -33.3622C548.137 -33.3622 537.552 -20.541 525.285 -5.69647C512.399 9.90047 497.79 27.5818 468.933 27.5818C440.076 27.5818 425.478 9.90047 412.581 -5.69647C400.314 -20.541 389.729 -33.3622 368.218 -33.3622C346.707 -33.3622 336.122 -20.541 323.855 -5.69647C310.969 9.90047 296.36 27.5818 267.503 27.5818C238.646 27.5818 224.048 9.90047 211.151 -5.69647C198.884 -20.541 188.299 -33.3622 166.788 -33.3622C145.277 -33.3622 134.692 -20.541 122.425 -5.69647C109.539 9.90047 94.9297 27.5818 66.0729 27.5818C37.2161 27.5818 22.6174 9.90047 9.72113 -5.69647C-2.54584 -20.541 -13.1311 -33.3622 -34.6422 -33.3622C-56.1532 -33.3622 -66.7385 -20.541 -79.0055 -5.69647C-91.8915 9.90047 -106.5 27.5818 -135.357 27.5818C-164.214 27.5818 -178.813 9.90047 -191.709 -5.69647C-203.904 -20.541 -214.499 -33.3622 -236 -33.3622V-48.5932C-207.154 -48.5932 -192.545 -30.9119 -179.648 -15.3149C-167.381 -0.470367 -156.796 12.3508 -135.285 12.3508C-113.774 12.3508 -103.189 -0.470367 -90.9217 -15.3149C-78.046 -30.9119 -63.437 -48.5932 -34.5803 -48.5932C-5.72348 -48.5932 8.87514 -30.9119 21.7715 -15.3149C34.0384 -0.470367 44.6237 12.3508 66.1348 12.3508C87.6458 12.3508 98.2311 -0.470367 110.498 -15.3149C123.384 -30.9119 137.993 -48.5932 166.85 -48.5932C195.707 -48.5932 210.305 -30.9119 223.201 -15.3149C235.468 -0.470367 246.054 12.3508 267.565 12.3508C289.076 12.3508 299.661 -0.470367 311.928 -15.3149C324.814 -30.9119 339.423 -48.5932 368.28 -48.5932C397.137 -48.5932 411.735 -30.9119 424.632 -15.3149C436.899 -0.470367 447.484 12.3508 468.995 12.3508C490.506 12.3508 501.091 -0.470367 513.358 -15.3149C526.244 -30.9119 540.853 -48.5932 569.71 -48.5932C598.567 -48.5932 613.165 -30.9119 626.062 -15.3149C638.329 -0.470367 648.914 12.3508 670.425 12.3508C691.936 12.3508 702.521 -0.470367 714.788 -15.3149C727.674 -30.9119 742.283 -48.5932 771.14 -48.5932C799.997 -48.5932 814.595 -30.9119 827.492 -15.3149C839.759 -0.470367 850.344 12.3508 871.855 12.3508C893.366 12.3508 903.951 -0.470367 916.218 -15.3149C929.104 -30.9119 943.713 -48.5932 972.57 -48.5932C1001.43 -48.5932 1016.04 -30.9119 1028.92 -15.3149C1041.19 -0.470367 1051.78 12.3508 1073.29 12.3508C1094.79 12.3508 1105.38 -0.470367 1117.65 -15.3149C1130.53 -30.9119 1145.14 -48.5932 1174 -48.5932V-33.3622C1152.5 -33.3622 1141.9 -20.541 1129.64 -5.69647C1116.75 9.90047 1102.14 27.5818 1073.29 27.5818H1073.22Z" fill="url(#paint2_linear_193_321)"/>
<path d="M1073.22 398.395C1044.37 398.395 1029.76 380.714 1016.87 365.117C1004.6 350.273 994.009 337.451 972.508 337.451C951.007 337.451 940.412 350.273 928.145 365.117C915.259 380.714 900.65 398.395 871.793 398.395C842.936 398.395 828.338 380.714 815.441 365.117C803.174 350.273 792.589 337.451 771.078 337.451C749.567 337.451 738.982 350.273 726.715 365.117C713.829 380.714 699.22 398.395 670.363 398.395C641.506 398.395 626.908 380.714 614.011 365.117C601.744 350.273 591.159 337.451 569.648 337.451C548.137 337.451 537.552 350.273 525.285 365.117C512.399 380.714 497.79 398.395 468.933 398.395C440.076 398.395 425.478 380.714 412.581 365.117C400.314 350.273 389.729 337.451 368.218 337.451C346.707 337.451 336.122 350.273 323.855 365.117C310.969 380.714 296.36 398.395 267.503 398.395C238.646 398.395 224.048 380.714 211.151 365.117C198.884 350.273 188.299 337.451 166.788 337.451C145.277 337.451 134.692 350.273 122.425 365.117C109.539 380.714 94.9297 398.395 66.0729 398.395C37.2161 398.395 22.6174 380.714 9.72113 365.117C-2.54584 350.273 -13.1311 337.451 -34.6422 337.451C-56.1532 337.451 -66.7385 350.273 -79.0055 365.117C-91.8915 380.714 -106.5 398.395 -135.357 398.395C-164.214 398.395 -178.813 380.714 -191.709 365.117C-203.904 350.273 -214.499 337.451 -236 337.451V322.221C-207.154 322.221 -192.545 339.902 -179.648 355.499C-167.381 370.343 -156.796 383.165 -135.285 383.165C-113.774 383.165 -103.189 370.343 -90.9217 355.499C-78.046 339.902 -63.437 322.221 -34.5803 322.221C-5.72348 322.221 8.87514 339.902 21.7715 355.499C34.0384 370.343 44.6237 383.165 66.1348 383.165C87.6458 383.165 98.2311 370.343 110.498 355.499C123.384 339.902 137.993 322.221 166.85 322.221C195.707 322.221 210.305 339.902 223.201 355.499C235.468 370.343 246.054 383.165 267.565 383.165C289.076 383.165 299.661 370.343 311.928 355.499C324.814 339.902 339.423 322.221 368.28 322.221C397.137 322.221 411.735 339.902 424.632 355.499C436.899 370.343 447.484 383.165 468.995 383.165C490.506 383.165 501.091 370.343 513.358 355.499C526.244 339.902 540.853 322.221 569.71 322.221C598.567 322.221 613.165 339.902 626.062 355.499C638.329 370.343 648.914 383.165 670.425 383.165C691.936 383.165 702.521 370.343 714.788 355.499C727.674 339.902 742.283 322.221 771.14 322.221C799.997 322.221 814.595 339.902 827.492 355.499C839.759 370.343 850.344 383.165 871.855 383.165C893.366 383.165 903.951 370.343 916.218 355.499C929.104 339.902 943.713 322.221 972.57 322.221C1001.43 322.221 1016.04 339.902 1028.92 355.499C1041.19 370.343 1051.78 383.165 1073.29 383.165C1094.79 383.165 1105.38 370.343 1117.65 355.499C1130.53 339.902 1145.14 322.221 1174 322.221V337.451C1152.5 337.451 1141.9 350.273 1129.64 365.117C1116.75 380.714 1102.14 398.395 1073.29 398.395H1073.22Z" fill="url(#paint3_linear_193_321)"/>
<path d="M1073.22 -96.0228C1044.37 -96.0228 1029.76 -113.704 1016.87 -129.301C1004.6 -144.146 994.009 -156.967 972.508 -156.967C951.007 -156.967 940.412 -144.146 928.145 -129.301C915.259 -113.704 900.65 -96.0228 871.793 -96.0228C842.936 -96.0228 828.338 -113.704 815.441 -129.301C803.174 -144.146 792.589 -156.967 771.078 -156.967C749.567 -156.967 738.982 -144.146 726.715 -129.301C713.829 -113.704 699.22 -96.0228 670.363 -96.0228C641.506 -96.0228 626.908 -113.704 614.011 -129.301C601.744 -144.146 591.159 -156.967 569.648 -156.967C548.137 -156.967 537.552 -144.146 525.285 -129.301C512.399 -113.704 497.79 -96.0228 468.933 -96.0228C440.076 -96.0228 425.478 -113.704 412.581 -129.301C400.314 -144.146 389.729 -156.967 368.218 -156.967C346.707 -156.967 336.122 -144.146 323.855 -129.301C310.969 -113.704 296.36 -96.0228 267.503 -96.0228C238.646 -96.0228 224.048 -113.704 211.151 -129.301C198.884 -144.146 188.299 -156.967 166.788 -156.967C145.277 -156.967 134.692 -144.146 122.425 -129.301C109.539 -113.704 94.9297 -96.0228 66.0729 -96.0228C37.2161 -96.0228 22.6174 -113.704 9.72113 -129.301C-2.54584 -144.146 -13.1311 -156.967 -34.6422 -156.967C-56.1532 -156.967 -66.7385 -144.146 -79.0055 -129.301C-91.8915 -113.704 -106.5 -96.0228 -135.357 -96.0228C-164.214 -96.0228 -178.813 -113.704 -191.709 -129.301C-203.904 -144.146 -214.499 -156.967 -236 -156.967V-172.198C-207.154 -172.198 -192.545 -154.516 -179.648 -138.919C-167.381 -124.075 -156.796 -111.254 -135.285 -111.254C-113.774 -111.254 -103.189 -124.075 -90.9217 -138.919C-78.046 -154.516 -63.437 -172.198 -34.5803 -172.198C-5.72348 -172.198 8.87514 -154.516 21.7715 -138.919C34.0384 -124.075 44.6237 -111.254 66.1348 -111.254C87.6458 -111.254 98.2311 -124.075 110.498 -138.919C123.384 -154.516 137.993 -172.198 166.85 -172.198C195.707 -172.198 210.305 -154.516 223.201 -138.919C235.468 -124.075 246.054 -111.254 267.565 -111.254C289.076 -111.254 299.661 -124.075 311.928 -138.919C324.814 -154.516 339.423 -172.198 368.28 -172.198C397.137 -172.198 411.735 -154.516 424.632 -138.919C436.899 -124.075 447.484 -111.254 468.995 -111.254C490.506 -111.254 501.091 -124.075 513.358 -138.919C526.244 -154.516 540.853 -172.198 569.71 -172.198C598.567 -172.198 613.165 -154.516 626.062 -138.919C638.329 -124.075 648.914 -111.254 670.425 -111.254C691.936 -111.254 702.521 -124.075 714.788 -138.919C727.674 -154.516 742.283 -172.198 771.14 -172.198C799.997 -172.198 814.595 -154.516 827.492 -138.919C839.759 -124.075 850.344 -111.254 871.855 -111.254C893.366 -111.254 903.951 -124.075 916.218 -138.919C929.104 -154.516 943.713 -172.198 972.57 -172.198C1001.43 -172.198 1016.04 -154.516 1028.92 -138.919C1041.19 -124.075 1051.78 -111.254 1073.29 -111.254C1094.79 -111.254 1105.38 -124.075 1117.65 -138.919C1130.53 -154.516 1145.14 -172.198 1174 -172.198V-156.967C1152.5 -156.967 1141.9 -144.146 1129.64 -129.301C1116.75 -113.704 1102.14 -96.0228 1073.29 -96.0228H1073.22Z" fill="url(#paint4_linear_193_321)"/>
<path d="M1073.22 274.791C1044.37 274.791 1029.76 257.11 1016.87 241.513C1004.6 226.668 994.009 213.847 972.508 213.847C951.007 213.847 940.412 226.668 928.145 241.513C915.259 257.11 900.65 274.791 871.793 274.791C842.936 274.791 828.338 257.11 815.441 241.513C803.174 226.668 792.589 213.847 771.078 213.847C749.567 213.847 738.982 226.668 726.715 241.513C713.829 257.11 699.22 274.791 670.363 274.791C641.506 274.791 626.908 257.11 614.011 241.513C601.744 226.668 591.159 213.847 569.648 213.847C548.137 213.847 537.552 226.668 525.285 241.513C512.399 257.11 497.79 274.791 468.933 274.791C440.076 274.791 425.478 257.11 412.581 241.513C400.314 226.668 389.729 213.847 368.218 213.847C346.707 213.847 336.122 226.668 323.855 241.513C310.969 257.11 296.36 274.791 267.503 274.791C238.646 274.791 224.048 257.11 211.151 241.513C198.884 226.668 188.299 213.847 166.788 213.847C145.277 213.847 134.692 226.668 122.425 241.513C109.539 257.11 94.9297 274.791 66.0729 274.791C37.2161 274.791 22.6174 257.11 9.72113 241.513C-2.54584 226.668 -13.1311 213.847 -34.6422 213.847C-56.1532 213.847 -66.7385 226.668 -79.0055 241.513C-91.8915 257.11 -106.5 274.791 -135.357 274.791C-164.214 274.791 -178.813 257.11 -191.709 241.513C-203.904 226.668 -214.499 213.847 -236 213.847V198.616C-207.154 198.616 -192.545 216.297 -179.648 231.894C-167.381 246.739 -156.796 259.56 -135.285 259.56C-113.774 259.56 -103.189 246.739 -90.9217 231.894C-78.046 216.297 -63.437 198.616 -34.5803 198.616C-5.72348 198.616 8.87514 216.297 21.7715 231.894C34.0384 246.739 44.6237 259.56 66.1348 259.56C87.6458 259.56 98.2311 246.739 110.498 231.894C123.384 216.297 137.993 198.616 166.85 198.616C195.707 198.616 210.305 216.297 223.201 231.894C235.468 246.739 246.054 259.56 267.565 259.56C289.076 259.56 299.661 246.739 311.928 231.894C324.814 216.297 339.423 198.616 368.28 198.616C397.137 198.616 411.735 216.297 424.632 231.894C436.899 246.739 447.484 259.56 468.995 259.56C490.506 259.56 501.091 246.739 513.358 231.894C526.244 216.297 540.853 198.616 569.71 198.616C598.567 198.616 613.165 216.297 626.062 231.894C638.329 246.739 648.914 259.56 670.425 259.56C691.936 259.56 702.521 246.739 714.788 231.894C727.674 216.297 742.283 198.616 771.14 198.616C799.997 198.616 814.595 216.297 827.492 231.894C839.759 246.739 850.344 259.56 871.855 259.56C893.366 259.56 903.951 246.739 916.218 231.894C929.104 216.297 943.713 198.616 972.57 198.616C1001.43 198.616 1016.04 216.297 1028.92 231.894C1041.19 246.739 1051.78 259.56 1073.29 259.56C1094.79 259.56 1105.38 246.739 1117.65 231.894C1130.53 216.297 1145.14 198.616 1174 198.616V213.847C1152.5 213.847 1141.9 226.668 1129.64 241.513C1116.75 257.11 1102.14 274.791 1073.29 274.791H1073.22Z" fill="url(#paint5_linear_193_321)"/>
<path d="M1073.22 89.384C1044.37 89.384 1029.76 71.7028 1016.87 56.1058C1004.6 41.2613 994.009 28.44 972.508 28.44C951.007 28.44 940.412 41.2613 928.145 56.1058C915.259 71.7028 900.65 89.384 871.793 89.384C842.936 89.384 828.338 71.7028 815.441 56.1058C803.174 41.2613 792.589 28.44 771.078 28.44C749.567 28.44 738.982 41.2613 726.715 56.1058C713.829 71.7028 699.22 89.384 670.363 89.384C641.506 89.384 626.908 71.7028 614.011 56.1058C601.744 41.2613 591.159 28.44 569.648 28.44C548.137 28.44 537.552 41.2613 525.285 56.1058C512.399 71.7028 497.79 89.384 468.933 89.384C440.076 89.384 425.478 71.7028 412.581 56.1058C400.314 41.2613 389.729 28.44 368.218 28.44C346.707 28.44 336.122 41.2613 323.855 56.1058C310.969 71.7028 296.36 89.384 267.503 89.384C238.646 89.384 224.048 71.7028 211.151 56.1058C198.884 41.2613 188.299 28.44 166.788 28.44C145.277 28.44 134.692 41.2613 122.425 56.1058C109.539 71.7028 94.9297 89.384 66.0729 89.384C37.2161 89.384 22.6174 71.7028 9.72113 56.1058C-2.54584 41.2613 -13.1311 28.44 -34.6422 28.44C-56.1532 28.44 -66.7385 41.2613 -79.0055 56.1058C-91.8915 71.7028 -106.5 89.384 -135.357 89.384C-164.214 89.384 -178.813 71.7028 -191.709 56.1058C-203.904 41.2613 -214.499 28.44 -236 28.44V13.2091C-207.154 13.2091 -192.545 30.8904 -179.648 46.4874C-167.381 61.3319 -156.796 74.1531 -135.285 74.1531C-113.774 74.1531 -103.189 61.3319 -90.9217 46.4874C-78.046 30.8904 -63.437 13.2091 -34.5803 13.2091C-5.72348 13.2091 8.87514 30.8904 21.7715 46.4874C34.0384 61.3319 44.6237 74.1531 66.1348 74.1531C87.6458 74.1531 98.2311 61.3319 110.498 46.4874C123.384 30.8904 137.993 13.2091 166.85 13.2091C195.707 13.2091 210.305 30.8904 223.201 46.4874C235.468 61.3319 246.054 74.1531 267.565 74.1531C289.076 74.1531 299.661 61.3319 311.928 46.4874C324.814 30.8904 339.423 13.2091 368.28 13.2091C397.137 13.2091 411.735 30.8904 424.632 46.4874C436.899 61.3319 447.484 74.1531 468.995 74.1531C490.506 74.1531 501.091 61.3319 513.358 46.4874C526.244 30.8904 540.853 13.2091 569.71 13.2091C598.567 13.2091 613.165 30.8904 626.062 46.4874C638.329 61.3319 648.914 74.1531 670.425 74.1531C691.936 74.1531 702.521 61.3319 714.788 46.4874C727.674 30.8904 742.283 13.2091 771.14 13.2091C799.997 13.2091 814.595 30.8904 827.492 46.4874C839.759 61.3319 850.344 74.1531 871.855 74.1531C893.366 74.1531 903.951 61.3319 916.218 46.4874C929.104 30.8904 943.713 13.2091 972.57 13.2091C1001.43 13.2091 1016.04 30.8904 1028.92 46.4874C1041.19 61.3319 1051.78 74.1531 1073.29 74.1531C1094.79 74.1531 1105.38 61.3319 1117.65 46.4874C1130.53 30.8904 1145.14 13.2091 1174 13.2091V28.44C1152.5 28.44 1141.9 41.2613 1129.64 56.1058C1116.75 71.7028 1102.14 89.384 1073.29 89.384H1073.22Z" fill="url(#paint6_linear_193_321)"/>
<path d="M1073.22 460.198C1044.37 460.198 1029.76 442.516 1016.87 426.919C1004.6 412.075 994.009 399.254 972.508 399.254C951.007 399.254 940.412 412.075 928.145 426.919C915.259 442.516 900.65 460.198 871.793 460.198C842.936 460.198 828.338 442.516 815.441 426.919C803.174 412.075 792.589 399.254 771.078 399.254C749.567 399.254 738.982 412.075 726.715 426.919C713.829 442.516 699.22 460.198 670.363 460.198C641.506 460.198 626.908 442.516 614.011 426.919C601.744 412.075 591.159 399.254 569.648 399.254C548.137 399.254 537.552 412.075 525.285 426.919C512.399 442.516 497.79 460.198 468.933 460.198C440.076 460.198 425.478 442.516 412.581 426.919C400.314 412.075 389.729 399.254 368.218 399.254C346.707 399.254 336.122 412.075 323.855 426.919C310.969 442.516 296.36 460.198 267.503 460.198C238.646 460.198 224.048 442.516 211.151 426.919C198.884 412.075 188.299 399.254 166.788 399.254C145.277 399.254 134.692 412.075 122.425 426.919C109.539 442.516 94.9297 460.198 66.0729 460.198C37.2161 460.198 22.6174 442.516 9.72113 426.919C-2.54584 412.075 -13.1311 399.254 -34.6422 399.254C-56.1532 399.254 -66.7385 412.075 -79.0055 426.919C-91.8915 442.516 -106.5 460.198 -135.357 460.198C-164.214 460.198 -178.813 442.516 -191.709 426.919C-203.904 412.075 -214.499 399.254 -236 399.254V384.023C-207.154 384.023 -192.545 401.704 -179.648 417.301C-167.381 432.146 -156.796 444.967 -135.285 444.967C-113.774 444.967 -103.189 432.146 -90.9217 417.301C-78.046 401.704 -63.437 384.023 -34.5803 384.023C-5.72348 384.023 8.87514 401.704 21.7715 417.301C34.0384 432.146 44.6237 444.967 66.1348 444.967C87.6458 444.967 98.2311 432.146 110.498 417.301C123.384 401.704 137.993 384.023 166.85 384.023C195.707 384.023 210.305 401.704 223.201 417.301C235.468 432.146 246.054 444.967 267.565 444.967C289.076 444.967 299.661 432.146 311.928 417.301C324.814 401.704 339.423 384.023 368.28 384.023C397.137 384.023 411.735 401.704 424.632 417.301C436.899 432.146 447.484 444.967 468.995 444.967C490.506 444.967 501.091 432.146 513.358 417.301C526.244 401.704 540.853 384.023 569.71 384.023C598.567 384.023 613.165 401.704 626.062 417.301C638.329 432.146 648.914 444.967 670.425 444.967C691.936 444.967 702.521 432.146 714.788 417.301C727.674 401.704 742.283 384.023 771.14 384.023C799.997 384.023 814.595 401.704 827.492 417.301C839.759 432.146 850.344 444.967 871.855 444.967C893.366 444.967 903.951 432.146 916.218 417.301C929.104 401.704 943.713 384.023 972.57 384.023C1001.43 384.023 1016.04 401.704 1028.92 417.301C1041.19 432.146 1051.78 444.967 1073.29 444.967C1094.79 444.967 1105.38 432.146 1117.65 417.301C1130.53 401.704 1145.14 384.023 1174 384.023V399.254C1152.5 399.254 1141.9 412.075 1129.64 426.919C1116.75 442.516 1102.14 460.198 1073.29 460.198H1073.22Z" fill="url(#paint7_linear_193_321)"/>
<path d="M1073.22 -34.2205C1044.37 -34.2205 1029.76 -51.9018 1016.87 -67.4987C1004.6 -82.3433 994.009 -95.1645 972.508 -95.1645C951.007 -95.1645 940.412 -82.3433 928.145 -67.4987C915.259 -51.9018 900.65 -34.2205 871.793 -34.2205C842.936 -34.2205 828.338 -51.9018 815.441 -67.4987C803.174 -82.3433 792.589 -95.1645 771.078 -95.1645C749.567 -95.1645 738.982 -82.3433 726.715 -67.4987C713.829 -51.9018 699.22 -34.2205 670.363 -34.2205C641.506 -34.2205 626.908 -51.9018 614.011 -67.4987C601.744 -82.3433 591.159 -95.1645 569.648 -95.1645C548.137 -95.1645 537.552 -82.3433 525.285 -67.4987C512.399 -51.9018 497.79 -34.2205 468.933 -34.2205C440.076 -34.2205 425.478 -51.9018 412.581 -67.4987C400.314 -82.3433 389.729 -95.1645 368.218 -95.1645C346.707 -95.1645 336.122 -82.3433 323.855 -67.4987C310.969 -51.9018 296.36 -34.2205 267.503 -34.2205C238.646 -34.2205 224.048 -51.9018 211.151 -67.4987C198.884 -82.3433 188.299 -95.1645 166.788 -95.1645C145.277 -95.1645 134.692 -82.3433 122.425 -67.4987C109.539 -51.9018 94.9297 -34.2205 66.0729 -34.2205C37.2161 -34.2205 22.6174 -51.9018 9.72113 -67.4987C-2.54584 -82.3433 -13.1311 -95.1645 -34.6422 -95.1645C-56.1532 -95.1645 -66.7385 -82.3433 -79.0055 -67.4987C-91.8915 -51.9018 -106.5 -34.2205 -135.357 -34.2205C-164.214 -34.2205 -178.813 -51.9018 -191.709 -67.4987C-203.904 -82.3433 -214.499 -95.1645 -236 -95.1645V-110.395C-207.154 -110.395 -192.545 -92.7141 -179.648 -77.1172C-167.381 -62.2727 -156.796 -49.4514 -135.285 -49.4514C-113.774 -49.4514 -103.189 -62.2727 -90.9217 -77.1172C-78.046 -92.7141 -63.437 -110.395 -34.5803 -110.395C-5.72348 -110.395 8.87514 -92.7141 21.7715 -77.1172C34.0384 -62.2727 44.6237 -49.4514 66.1348 -49.4514C87.6458 -49.4514 98.2311 -62.2727 110.498 -77.1172C123.384 -92.7141 137.993 -110.395 166.85 -110.395C195.707 -110.395 210.305 -92.7141 223.201 -77.1172C235.468 -62.2727 246.054 -49.4514 267.565 -49.4514C289.076 -49.4514 299.661 -62.2727 311.928 -77.1172C324.814 -92.7141 339.423 -110.395 368.28 -110.395C397.137 -110.395 411.735 -92.7141 424.632 -77.1172C436.899 -62.2727 447.484 -49.4514 468.995 -49.4514C490.506 -49.4514 501.091 -62.2727 513.358 -77.1172C526.244 -92.7141 540.853 -110.395 569.71 -110.395C598.567 -110.395 613.165 -92.7141 626.062 -77.1172C638.329 -62.2727 648.914 -49.4514 670.425 -49.4514C691.936 -49.4514 702.521 -62.2727 714.788 -77.1172C727.674 -92.7141 742.283 -110.395 771.14 -110.395C799.997 -110.395 814.595 -92.7141 827.492 -77.1172C839.759 -62.2727 850.344 -49.4514 871.855 -49.4514C893.366 -49.4514 903.951 -62.2727 916.218 -77.1172C929.104 -92.7141 943.713 -110.395 972.57 -110.395C1001.43 -110.395 1016.04 -92.7141 1028.92 -77.1172C1041.19 -62.2727 1051.78 -49.4514 1073.29 -49.4514C1094.79 -49.4514 1105.38 -62.2727 1117.65 -77.1172C1130.53 -92.7141 1145.14 -110.395 1174 -110.395V-95.1645C1152.5 -95.1645 1141.9 -82.3433 1129.64 -67.4987C1116.75 -51.9018 1102.14 -34.2205 1073.29 -34.2205H1073.22Z" fill="url(#paint8_linear_193_321)"/>
<path d="M1073.22 336.593C1044.37 336.593 1029.76 318.912 1016.87 303.315C1004.6 288.47 994.009 275.649 972.508 275.649C951.007 275.649 940.412 288.47 928.145 303.315C915.259 318.912 900.65 336.593 871.793 336.593C842.936 336.593 828.338 318.912 815.441 303.315C803.174 288.47 792.589 275.649 771.078 275.649C749.567 275.649 738.982 288.47 726.715 303.315C713.829 318.912 699.22 336.593 670.363 336.593C641.506 336.593 626.908 318.912 614.011 303.315C601.744 288.47 591.159 275.649 569.648 275.649C548.137 275.649 537.552 288.47 525.285 303.315C512.399 318.912 497.79 336.593 468.933 336.593C440.076 336.593 425.478 318.912 412.581 303.315C400.314 288.47 389.729 275.649 368.218 275.649C346.707 275.649 336.122 288.47 323.855 303.315C310.969 318.912 296.36 336.593 267.503 336.593C238.646 336.593 224.048 318.912 211.151 303.315C198.884 288.47 188.299 275.649 166.788 275.649C145.277 275.649 134.692 288.47 122.425 303.315C109.539 318.912 94.9297 336.593 66.0729 336.593C37.2161 336.593 22.6174 318.912 9.72113 303.315C-2.54584 288.47 -13.1311 275.649 -34.6422 275.649C-56.1532 275.649 -66.7385 288.47 -79.0055 303.315C-91.8915 318.912 -106.5 336.593 -135.357 336.593C-164.214 336.593 -178.813 318.912 -191.709 303.315C-203.904 288.47 -214.499 275.649 -236 275.649V260.418C-207.154 260.418 -192.545 278.1 -179.648 293.696C-167.381 308.541 -156.796 321.362 -135.285 321.362C-113.774 321.362 -103.189 308.541 -90.9217 293.696C-78.046 278.1 -63.437 260.418 -34.5803 260.418C-5.72348 260.418 8.87514 278.1 21.7715 293.696C34.0384 308.541 44.6237 321.362 66.1348 321.362C87.6458 321.362 98.2311 308.541 110.498 293.696C123.384 278.1 137.993 260.418 166.85 260.418C195.707 260.418 210.305 278.1 223.201 293.696C235.468 308.541 246.054 321.362 267.565 321.362C289.076 321.362 299.661 308.541 311.928 293.696C324.814 278.1 339.423 260.418 368.28 260.418C397.137 260.418 411.735 278.1 424.632 293.696C436.899 308.541 447.484 321.362 468.995 321.362C490.506 321.362 501.091 308.541 513.358 293.696C526.244 278.1 540.853 260.418 569.71 260.418C598.567 260.418 613.165 278.1 626.062 293.696C638.329 308.541 648.914 321.362 670.425 321.362C691.936 321.362 702.521 308.541 714.788 293.696C727.674 278.1 742.283 260.418 771.14 260.418C799.997 260.418 814.595 278.1 827.492 293.696C839.759 308.541 850.344 321.362 871.855 321.362C893.366 321.362 903.951 308.541 916.218 293.696C929.104 278.1 943.713 260.418 972.57 260.418C1001.43 260.418 1016.04 278.1 1028.92 293.696C1041.19 308.541 1051.78 321.362 1073.29 321.362C1094.79 321.362 1105.38 308.541 1117.65 293.696C1130.53 278.1 1145.14 260.418 1174 260.418V275.649C1152.5 275.649 1141.9 288.47 1129.64 303.315C1116.75 318.912 1102.14 336.593 1073.29 336.593H1073.22Z" fill="url(#paint9_linear_193_321)"/>
<path d="M1073.22 151.186C1044.37 151.186 1029.76 133.505 1016.87 117.908C1004.6 103.064 994.009 90.2423 972.508 90.2423C951.007 90.2423 940.412 103.064 928.145 117.908C915.259 133.505 900.65 151.186 871.793 151.186C842.936 151.186 828.338 133.505 815.441 117.908C803.174 103.064 792.589 90.2423 771.078 90.2423C749.567 90.2423 738.982 103.064 726.715 117.908C713.829 133.505 699.22 151.186 670.363 151.186C641.506 151.186 626.908 133.505 614.011 117.908C601.744 103.064 591.159 90.2423 569.648 90.2423C548.137 90.2423 537.552 103.064 525.285 117.908C512.399 133.505 497.79 151.186 468.933 151.186C440.076 151.186 425.478 133.505 412.581 117.908C400.314 103.064 389.729 90.2423 368.218 90.2423C346.707 90.2423 336.122 103.064 323.855 117.908C310.969 133.505 296.36 151.186 267.503 151.186C238.646 151.186 224.048 133.505 211.151 117.908C198.884 103.064 188.299 90.2423 166.788 90.2423C145.277 90.2423 134.692 103.064 122.425 117.908C109.539 133.505 94.9297 151.186 66.0729 151.186C37.2161 151.186 22.6174 133.505 9.72113 117.908C-2.54584 103.064 -13.1311 90.2423 -34.6422 90.2423C-56.1532 90.2423 -66.7385 103.064 -79.0055 117.908C-91.8915 133.505 -106.5 151.186 -135.357 151.186C-164.214 151.186 -178.813 133.505 -191.709 117.908C-203.904 103.064 -214.499 90.2423 -236 90.2423V75.0114C-207.154 75.0114 -192.545 92.6927 -179.648 108.29C-167.381 123.134 -156.796 135.955 -135.285 135.955C-113.774 135.955 -103.189 123.134 -90.9217 108.29C-78.046 92.6927 -63.437 75.0114 -34.5803 75.0114C-5.72348 75.0114 8.87514 92.6927 21.7715 108.29C34.0384 123.134 44.6237 135.955 66.1348 135.955C87.6458 135.955 98.2311 123.134 110.498 108.29C123.384 92.6927 137.993 75.0114 166.85 75.0114C195.707 75.0114 210.305 92.6927 223.201 108.29C235.468 123.134 246.054 135.955 267.565 135.955C289.076 135.955 299.661 123.134 311.928 108.29C324.814 92.6927 339.423 75.0114 368.28 75.0114C397.137 75.0114 411.735 92.6927 424.632 108.29C436.899 123.134 447.484 135.955 468.995 135.955C490.506 135.955 501.091 123.134 513.358 108.29C526.244 92.6927 540.853 75.0114 569.71 75.0114C598.567 75.0114 613.165 92.6927 626.062 108.29C638.329 123.134 648.914 135.955 670.425 135.955C691.936 135.955 702.521 123.134 714.788 108.29C727.674 92.6927 742.283 75.0114 771.14 75.0114C799.997 75.0114 814.595 92.6927 827.492 108.29C839.759 123.134 850.344 135.955 871.855 135.955C893.366 135.955 903.951 123.134 916.218 108.29C929.104 92.6927 943.713 75.0114 972.57 75.0114C1001.43 75.0114 1016.04 92.6927 1028.92 108.29C1041.19 123.134 1051.78 135.955 1073.29 135.955C1094.79 135.955 1105.38 123.134 1117.65 108.29C1130.53 92.6927 1145.14 75.0114 1174 75.0114V90.2423C1152.5 90.2423 1141.9 103.064 1129.64 117.908C1116.75 133.505 1102.14 151.186 1073.29 151.186H1073.22Z" fill="url(#paint10_linear_193_321)"/>
<path d="M1073.22 522C1044.37 522 1029.76 504.319 1016.87 488.722C1004.6 473.877 994.009 461.056 972.508 461.056C951.007 461.056 940.412 473.877 928.145 488.722C915.259 504.319 900.65 522 871.793 522C842.936 522 828.338 504.319 815.441 488.722C803.174 473.877 792.589 461.056 771.078 461.056C749.567 461.056 738.982 473.877 726.715 488.722C713.829 504.319 699.22 522 670.363 522C641.506 522 626.908 504.319 614.011 488.722C601.744 473.877 591.159 461.056 569.648 461.056C548.137 461.056 537.552 473.877 525.285 488.722C512.399 504.319 497.79 522 468.933 522C440.076 522 425.478 504.319 412.581 488.722C400.314 473.877 389.729 461.056 368.218 461.056C346.707 461.056 336.122 473.877 323.855 488.722C310.969 504.319 296.36 522 267.503 522C238.646 522 224.048 504.319 211.151 488.722C198.884 473.877 188.299 461.056 166.788 461.056C145.277 461.056 134.692 473.877 122.425 488.722C109.539 504.319 94.9297 522 66.0729 522C37.2161 522 22.6174 504.319 9.72113 488.722C-2.54584 473.877 -13.1311 461.056 -34.6422 461.056C-56.1532 461.056 -66.7385 473.877 -79.0055 488.722C-91.8915 504.319 -106.5 522 -135.357 522C-164.214 522 -178.813 504.319 -191.709 488.722C-203.904 473.877 -214.499 461.056 -236 461.056V445.825C-207.154 445.825 -192.545 463.506 -179.648 479.103C-167.381 493.948 -156.796 506.769 -135.285 506.769C-113.774 506.769 -103.189 493.948 -90.9217 479.103C-78.046 463.506 -63.437 445.825 -34.5803 445.825C-5.72348 445.825 8.87514 463.506 21.7715 479.103C34.0384 493.948 44.6237 506.769 66.1348 506.769C87.6458 506.769 98.2311 493.948 110.498 479.103C123.384 463.506 137.993 445.825 166.85 445.825C195.707 445.825 210.305 463.506 223.201 479.103C235.468 493.948 246.054 506.769 267.565 506.769C289.076 506.769 299.661 493.948 311.928 479.103C324.814 463.506 339.423 445.825 368.28 445.825C397.137 445.825 411.735 463.506 424.632 479.103C436.899 493.948 447.484 506.769 468.995 506.769C490.506 506.769 501.091 493.948 513.358 479.103C526.244 463.506 540.853 445.825 569.71 445.825C598.567 445.825 613.165 463.506 626.062 479.103C638.329 493.948 648.914 506.769 670.425 506.769C691.936 506.769 702.521 493.948 714.788 479.103C727.674 463.506 742.283 445.825 771.14 445.825C799.997 445.825 814.595 463.506 827.492 479.103C839.759 493.948 850.344 506.769 871.855 506.769C893.366 506.769 903.951 493.948 916.218 479.103C929.104 463.506 943.713 445.825 972.57 445.825C1001.43 445.825 1016.04 463.506 1028.92 479.103C1041.19 493.948 1051.78 506.769 1073.29 506.769C1094.79 506.769 1105.38 493.948 1117.65 479.103C1130.53 463.506 1145.14 445.825 1174 445.825V461.056C1152.5 461.056 1141.9 473.877 1129.64 488.722C1116.75 504.319 1102.14 522 1073.29 522H1073.22Z" fill="url(#paint11_linear_193_321)"/>
<defs>
<linearGradient id="paint0_linear_193_321" x1="469" y1="-4.00001" x2="469" y2="446" gradientUnits="userSpaceOnUse">
<stop stop-color="#E8374C"/>
<stop offset="1" stop-color="#EC4D60" stop-opacity="0"/>
</linearGradient>
<linearGradient id="paint1_linear_193_321" x1="469" y1="-4.00001" x2="469" y2="446" gradientUnits="userSpaceOnUse">
<stop stop-color="#E8374C"/>
<stop offset="1" stop-color="#EC4D60" stop-opacity="0"/>
</linearGradient>
<linearGradient id="paint2_linear_193_321" x1="469" y1="-4.00001" x2="469" y2="446" gradientUnits="userSpaceOnUse">
<stop stop-color="#E8374C"/>
<stop offset="1" stop-color="#EC4D60" stop-opacity="0"/>
</linearGradient>
<linearGradient id="paint3_linear_193_321" x1="469" y1="-4.00001" x2="469" y2="446" gradientUnits="userSpaceOnUse">
<stop stop-color="#E8374C"/>
<stop offset="1" stop-color="#EC4D60" stop-opacity="0"/>
</linearGradient>
<linearGradient id="paint4_linear_193_321" x1="469" y1="-4.00001" x2="469" y2="446" gradientUnits="userSpaceOnUse">
<stop stop-color="#E8374C"/>
<stop offset="1" stop-color="#EC4D60" stop-opacity="0"/>
</linearGradient>
<linearGradient id="paint5_linear_193_321" x1="469" y1="-4.00001" x2="469" y2="446" gradientUnits="userSpaceOnUse">
<stop stop-color="#E8374C"/>
<stop offset="1" stop-color="#EC4D60" stop-opacity="0"/>
</linearGradient>
<linearGradient id="paint6_linear_193_321" x1="469" y1="-4.00001" x2="469" y2="446" gradientUnits="userSpaceOnUse">
<stop stop-color="#E8374C"/>
<stop offset="1" stop-color="#EC4D60" stop-opacity="0"/>
</linearGradient>
<linearGradient id="paint7_linear_193_321" x1="469" y1="-4.00001" x2="469" y2="446" gradientUnits="userSpaceOnUse">
<stop stop-color="#E8374C"/>
<stop offset="1" stop-color="#EC4D60" stop-opacity="0"/>
</linearGradient>
<linearGradient id="paint8_linear_193_321" x1="469" y1="-4.00001" x2="469" y2="446" gradientUnits="userSpaceOnUse">
<stop stop-color="#E8374C"/>
<stop offset="1" stop-color="#EC4D60" stop-opacity="0"/>
</linearGradient>
<linearGradient id="paint9_linear_193_321" x1="469" y1="-4.00001" x2="469" y2="446" gradientUnits="userSpaceOnUse">
<stop stop-color="#E8374C"/>
<stop offset="1" stop-color="#EC4D60" stop-opacity="0"/>
</linearGradient>
<linearGradient id="paint10_linear_193_321" x1="469" y1="-4.00001" x2="469" y2="446" gradientUnits="userSpaceOnUse">
<stop stop-color="#E8374C"/>
<stop offset="1" stop-color="#EC4D60" stop-opacity="0"/>
</linearGradient>
<linearGradient id="paint11_linear_193_321" x1="469" y1="-4.00001" x2="469" y2="446" gradientUnits="userSpaceOnUse">
<stop stop-color="#E8374C"/>
<stop offset="1" stop-color="#EC4D60" stop-opacity="0"/>
</linearGradient>
</defs>
</svg>
