<svg width="1920" height="562" viewBox="0 0 1920 562" fill="none" xmlns="http://www.w3.org/2000/svg">
<path d="M1626.11 -312L1689.34 -181.863L1752.59 -312L1815.83 -181.863L1879.08 -312L1953.98 -157.782L1930.6 -146.398L1879.06 -252.469L1815.83 -122.333L1752.59 -252.47L1689.34 -122.333L1626.11 -252.47L1562.87 -122.333L1499.64 -252.47L1436.4 -122.333L1373.17 -252.47L1309.92 -122.333L1246.68 -252.47L1183.44 -122.333L1120.21 -252.47L1056.97 -122.333L993.723 -252.47L930.472 -122.333L867.22 -252.47L803.969 -122.333L740.717 -252.47L677.482 -122.333L614.247 -252.47L550.996 -122.333L487.76 -252.47L424.509 -122.333L361.258 -252.47L298.006 -122.333L234.755 -252.47L171.503 -122.333L108.236 -252.47L44.9683 -122.333L-29.9999 -276.535L-6.61504 -287.919L44.9521 -181.831L108.22 -311.968L171.487 -181.831L234.739 -311.968L297.99 -181.831L361.241 -311.968L424.493 -181.831L487.744 -311.968L550.979 -181.831L614.231 -311.968L677.466 -181.831L740.701 -311.968L803.953 -181.831L867.204 -311.968L930.455 -181.831L993.707 -311.968L1056.96 -181.831L1120.19 -311.968L1183.43 -181.831L1246.66 -311.968L1309.9 -181.831L1373.15 -311.968L1436.39 -181.831L1499.62 -311.968L1562.86 -181.831L1626.09 -311.968L1626.11 -312ZM1562.87 -44.9967L1499.64 -175.133L1436.4 -44.9967L1373.17 -175.133L1309.92 -44.9968L1246.68 -175.133L1183.44 -44.9968L1120.21 -175.133L1056.97 -44.9968L993.723 -175.134L930.472 -44.9968L867.22 -175.134L803.969 -44.9968L740.717 -175.134L677.482 -44.9968L614.247 -175.134L550.996 -44.9968L487.76 -175.134L424.509 -44.9968L361.258 -175.134L298.006 -44.9968L234.755 -175.134L171.503 -44.9969L108.236 -175.134L44.9683 -44.9969L-6.59881 -151.085L-29.9837 -139.701L44.9845 14.5012L108.252 -115.636L171.52 14.5012L234.771 -115.636L298.022 14.5012L361.274 -115.636L424.525 14.5012L487.777 -115.636L551.012 14.5012L614.263 -115.635L677.498 14.5012L740.734 -115.635L803.985 14.5012L867.236 -115.635L930.488 14.5013L993.739 -115.635L1056.99 14.5013L1120.23 -115.635L1183.46 14.5013L1246.7 -115.635L1309.93 14.5013L1373.18 -115.635L1436.42 14.5013L1499.65 -115.635L1562.89 14.5013L1626.12 -115.635L1689.36 14.5013L1752.61 -115.635L1815.85 14.5013L1879.08 -115.635L1930.62 -9.56378L1954 -20.9478L1879.08 -175.166L1815.83 -45.0291L1752.59 -175.166L1689.34 -45.0291L1626.11 -175.166L1562.87 -45.0291L1562.87 -44.9967ZM1562.87 91.8698L1499.64 -38.2669L1436.4 91.8698L1373.17 -38.2669L1309.92 91.8698L1246.68 -38.2669L1183.44 91.8698L1120.21 -38.2669L1056.97 91.8698L993.723 -38.2669L930.472 91.8698L867.22 -38.2669L803.969 91.8698L740.717 -38.267L677.482 91.8698L614.247 -38.267L550.996 91.8698L487.76 -38.267L424.509 91.8697L361.258 -38.267L298.006 91.8697L234.755 -38.267L171.503 91.8697L108.236 -38.267L44.9683 91.8697L-6.59883 -14.2181L-29.9837 -2.83416L44.9845 151.368L108.252 21.231L171.52 151.368L234.771 21.231L298.022 151.368L361.274 21.231L424.525 151.368L487.777 21.231L551.012 151.368L614.263 21.231L677.498 151.368L740.734 21.231L803.985 151.368L867.236 21.231L930.488 151.368L993.739 21.2311L1056.99 151.368L1120.23 21.2311L1183.46 151.368L1246.7 21.2311L1309.93 151.368L1373.18 21.2311L1436.42 151.368L1499.65 21.2311L1562.89 151.368L1626.12 21.2311L1689.36 151.368L1752.61 21.2311L1815.85 151.368L1879.08 21.2311L1930.62 127.303L1954 115.919L1879.08 -38.2993L1815.83 91.8375L1752.59 -38.2993L1689.34 91.8374L1626.11 -38.2993L1562.87 91.8374L1562.87 91.8698ZM1562.87 228.736L1499.64 98.5996L1436.4 228.736L1373.17 98.5996L1309.92 228.736L1246.68 98.5996L1183.44 228.736L1120.21 98.5996L1056.97 228.736L993.723 98.5996L930.472 228.736L867.22 98.5996L803.969 228.736L740.717 98.5996L677.482 228.736L614.247 98.5996L550.996 228.736L487.76 98.5995L424.509 228.736L361.258 98.5995L298.006 228.736L234.755 98.5995L171.503 228.736L108.236 98.5995L44.9683 228.736L-6.59884 122.648L-29.9837 134.032L44.9845 288.234L108.252 158.098L171.52 288.234L234.771 158.098L298.022 288.234L361.274 158.098L424.525 288.234L487.777 158.098L551.012 288.234L614.263 158.098L677.498 288.234L740.734 158.098L803.985 288.234L867.236 158.098L930.488 288.234L993.739 158.098L1056.99 288.234L1120.23 158.098L1183.46 288.234L1246.7 158.098L1309.93 288.234L1373.18 158.098L1436.42 288.234L1499.65 158.098L1562.89 288.234L1626.12 158.098L1689.36 288.234L1752.61 158.098L1815.85 288.234L1879.08 158.098L1930.61 264.169L1954 252.785L1879.08 98.5673L1815.83 228.704L1752.59 98.5672L1689.34 228.704L1626.11 98.5672L1562.87 228.704L1562.87 228.736ZM1562.87 365.603L1499.64 235.466L1436.4 365.603L1373.17 235.466L1309.92 365.603L1246.68 235.466L1183.44 365.603L1120.21 235.466L1056.97 365.603L993.723 235.466L930.472 365.603L867.22 235.466L803.969 365.603L740.717 235.466L677.482 365.603L614.247 235.466L550.996 365.603L487.76 235.466L424.509 365.603L361.258 235.466L298.006 365.603L234.755 235.466L171.503 365.603L108.236 235.466L44.9683 365.603L-6.59885 259.515L-29.9837 270.899L44.9845 425.101L108.252 294.964L171.52 425.101L234.771 294.964L298.022 425.101L361.274 294.964L424.525 425.101L487.777 294.964L551.012 425.101L614.263 294.964L677.498 425.101L740.734 294.964L803.985 425.101L867.236 294.964L930.488 425.101L993.739 294.964L1056.99 425.101L1120.23 294.964L1183.46 425.101L1246.7 294.964L1309.93 425.101L1373.18 294.964L1436.42 425.101L1499.65 294.964L1562.89 425.101L1626.12 294.964L1689.36 425.101L1752.61 294.964L1815.85 425.101L1879.08 294.964L1930.6 401.068L1953.98 389.684L1879.06 235.466L1815.81 365.603L1752.58 235.466L1689.33 365.603L1626.09 235.466L1562.86 365.603L1562.87 365.603ZM1562.87 502.47L1499.64 372.333L1436.4 502.469L1373.17 372.333L1309.92 502.469L1246.68 372.333L1183.44 502.469L1120.21 372.333L1056.97 502.469L993.723 372.333L930.472 502.469L867.22 372.333L803.969 502.469L740.717 372.333L677.482 502.469L614.247 372.333L550.996 502.469L487.76 372.333L424.509 502.469L361.258 372.333L298.006 502.469L234.755 372.333L171.503 502.469L108.236 372.333L44.9683 502.469L-6.59886 396.382L-29.9838 407.765L44.9683 562L108.236 431.863L171.487 562L234.739 431.863L298.006 562L361.258 431.863L424.509 562L487.76 431.863L550.996 562L614.247 431.863L677.482 562L740.717 431.863L803.969 562L867.22 431.863L930.455 562L993.707 431.863L1056.96 562L1120.19 431.863L1183.44 562L1246.68 431.863L1309.92 562L1373.17 431.863L1436.4 562L1499.64 431.863L1562.87 562L1626.11 431.863L1689.34 562L1752.59 431.863L1815.81 562L1879.05 431.863L1930.6 537.935L1953.98 526.551L1879.06 372.333L1815.81 502.47L1752.58 372.333L1689.33 502.47L1626.09 372.333L1562.86 502.47L1562.87 502.47Z" fill="url(#paint0_linear_193_310)"/>
<defs>
<linearGradient id="paint0_linear_193_310" x1="962" y1="-4.00001" x2="962" y2="716" gradientUnits="userSpaceOnUse">
<stop stop-color="#12255F"/>
<stop offset="1" stop-color="#12255F" stop-opacity="0"/>
</linearGradient>
</defs>
</svg>
